<svg width="69" height="50" viewBox="0 0 69 50" fill="none" xmlns="http://www.w3.org/2000/svg">
<path d="M15.7189 49.6065C11.9083 49.6065 8.36982 48.1775 5.10355 45.3195C1.70118 41.9172 0 38.0385 0 33.6834C0 30.0089 1.36095 26.5385 4.08284 23.2722L25.5178 0L29.8047 3.8787C26.2663 8.09763 24.497 11.8402 24.497 15.1065C24.497 18.2367 25.6538 21.2988 27.9675 24.2929C30.2811 27.287 31.4379 30.4852 31.4379 33.8876C31.4379 37.6982 30.0089 41.2367 27.1509 44.503C23.7485 47.9053 19.9379 49.6065 15.7189 49.6065ZM53.4852 49.6065C49.6746 49.6065 46.1361 48.1775 42.8698 45.3195C39.4675 41.9172 37.7663 38.1065 37.7663 33.8876C37.7663 30.0769 39.1272 26.5385 41.8491 23.2722L63.0799 0L67.3669 3.8787C63.9645 8.09763 62.2633 11.8402 62.2633 15.1065C62.2633 18.1006 63.3521 21.1627 65.5296 24.2929C67.8432 27.287 69 30.4852 69 33.8876C69 37.6982 67.6391 41.2367 64.9172 44.503C61.5148 47.9053 57.7041 49.6065 53.4852 49.6065Z" fill="#9AA6B6"/>
</svg>
