<svg width="24" height="23" viewBox="0 0 24 23" fill="none" xmlns="http://www.w3.org/2000/svg">
<path d="M6.62012 12.4268C7.95345 9.59346 10.8201 3.52679 11.6201 1.92679C12.6201 -0.0732088 15.6201 1.42679 14.1201 3.92679C12.9201 5.92679 9.28678 11.0934 7.62012 13.4268" stroke="#F4923B"/>
<path d="M11.1201 16.4718C13.9534 15.1385 20.0201 12.2718 21.6201 11.4718C23.6201 10.4718 22.1201 7.4718 19.6201 8.9718C17.6201 10.1718 12.4534 13.8051 10.1201 15.4718" stroke="#F4923B"/>
<path d="M14.1201 3.92678C14.6201 3.42676 15.8201 3.12685 16.6201 3.92685C17.6201 4.92685 17.1201 6.42684 16.1201 7.42684C15.3201 8.22684 11.1201 12.4268 9.12012 14.4268" stroke="#F4923B"/>
<path d="M18.1197 9.92676C19.6201 8.92676 20.4197 7.72676 19.6197 6.92676C18.6197 5.92676 17.1201 6.42676 16.1201 7.42676C15.3201 8.22676 11.1201 12.4268 9.12007 14.4268" stroke="#F4923B"/>
<path d="M11.62 16.9268L6.11995 11.9268L2.62014 15.4268C1.12014 16.9268 0.120117 18.9268 2.12012 20.9268C4.12012 22.9268 6.61995 21.9268 8.61995 19.9268L11.62 16.9268Z" stroke="#F4923B"/>
<path d="M4.62012 13.4268L10.1201 18.4268" stroke="#F4923B"/>
</svg>
