<svg width="48" height="26" viewBox="0 0 48 26" fill="none" xmlns="http://www.w3.org/2000/svg">
<circle cx="9.33342" cy="2.66667" r="1.91667" stroke="#F4923B" stroke-width="1.5"/>
<circle cx="23.9999" cy="2.66667" r="1.91667" stroke="#F4923B" stroke-width="1.5"/>
<circle cx="38.6667" cy="2.66667" r="1.91667" stroke="#F4923B" stroke-width="1.5"/>
<rect x="4.75" y="7.41666" width="9.16667" height="7.83333" rx="1.91667" stroke="#F4923B" stroke-width="1.5"/>
<rect x="19.4167" y="7.41666" width="9.16667" height="7.83333" rx="1.91667" stroke="#F4923B" stroke-width="1.5"/>
<rect x="34.0833" y="7.41666" width="9.16667" height="7.83333" rx="1.91667" stroke="#F4923B" stroke-width="1.5"/>
<path d="M6.28276 16.0788C6.235 15.7286 6.50725 15.4167 6.86074 15.4167H11.9059C12.2437 15.4167 12.5109 15.7027 12.4879 16.0397L11.9424 24.0397C11.9216 24.3457 11.6672 24.5833 11.3605 24.5833H7.95165C7.65994 24.5833 7.41308 24.3678 7.37367 24.0788L6.28276 16.0788Z" stroke="#F4923B" stroke-width="1.5"/>
<path d="M20.9495 16.0788C20.9017 15.7286 21.174 15.4167 21.5275 15.4167H26.5727C26.9104 15.4167 27.1776 15.7027 27.1546 16.0397L26.6092 24.0397C26.5883 24.3457 26.334 24.5833 26.0272 24.5833H22.6184C22.3267 24.5833 22.0798 24.3678 22.0404 24.0788L20.9495 16.0788Z" stroke="#F4923B" stroke-width="1.5"/>
<path d="M35.6163 16.0788C35.5685 15.7286 35.8407 15.4167 36.1942 15.4167H41.2394C41.5772 15.4167 41.8444 15.7027 41.8214 16.0397L41.2759 24.0397C41.2551 24.3457 41.0007 24.5833 40.694 24.5833H37.2851C36.9934 24.5833 36.7466 24.3678 36.7072 24.0788L35.6163 16.0788Z" stroke="#F4923B" stroke-width="1.5"/>
<mask id="path-10-inside-1_11_987" fill="white">
<path d="M0 10.6667C0 9.9303 0.596954 9.33334 1.33333 9.33334H5.33333V13.3333H1.33333C0.596955 13.3333 0 12.7364 0 12V10.6667Z"/>
</mask>
<path d="M0 10.6667C0 9.9303 0.596954 9.33334 1.33333 9.33334H5.33333V13.3333H1.33333C0.596955 13.3333 0 12.7364 0 12V10.6667Z" stroke="#F4923B" stroke-width="3" mask="url(#path-10-inside-1_11_987)"/>
<mask id="path-11-inside-2_11_987" fill="white">
<path d="M42.6667 9.33334H46.6667C47.4031 9.33334 48.0001 9.9303 48.0001 10.6667V12C48.0001 12.7364 47.4031 13.3333 46.6667 13.3333H42.6667V9.33334Z"/>
</mask>
<path d="M42.6667 9.33334H46.6667C47.4031 9.33334 48.0001 9.9303 48.0001 10.6667V12C48.0001 12.7364 47.4031 13.3333 46.6667 13.3333H42.6667V9.33334Z" stroke="#F4923B" stroke-width="3" mask="url(#path-11-inside-2_11_987)"/>
<rect x="14.0833" y="10.0833" width="5.16667" height="2.5" stroke="#F4923B" stroke-width="1.5"/>
<rect x="28.75" y="10.0833" width="5.16667" height="2.5" stroke="#F4923B" stroke-width="1.5"/>
</svg>
