<svg width="167" height="138" viewBox="0 0 167 138" fill="none" xmlns="http://www.w3.org/2000/svg">
<g clip-path="url(#clip0_11_1393)">
<path d="M72.256 50.0564H67.4055L69.3421 53.3006L80.2643 53.7985V53.2691L73.5296 52.6219L72.256 50.0564Z" fill="white"/>
<path d="M78.7948 47.541H76.5098V50.2375H78.7948V47.541Z" fill="white"/>
<path d="M69.4417 43.5627V45.0224L70.6209 43.5627H69.4417Z" fill="white"/>
<path d="M81.1272 44.9939C80.2677 44.9441 79.6047 44.9284 79.6047 44.9284V47.0798H81.6251C81.6251 47.0798 81.5256 42.9761 81.4103 42.811C81.4103 42.811 81.046 43.9195 81.1299 44.9965L81.1272 44.9939Z" fill="white"/>
<path d="M79.6047 50.2401H81.6225V47.6091L79.6047 47.541V50.2401Z" fill="white"/>
<path d="M78.7948 44.9285H76.5098V47.0799H78.7948V44.9285Z" fill="white"/>
<path d="M72.9662 43.5627H71.9206L69.4417 46.7466V48.9819H72.9662V43.5627Z" fill="white"/>
<path d="M78.561 60.0044C71.014 59.758 68.3332 60.7512 68.3332 60.7512L62.3716 61.1469C62.3716 61.1469 88.1939 62.2894 92.2399 62.7349C78.2124 62.7349 72.9662 63.7281 72.9662 63.7281L91.3228 65.3685C91.3228 65.3685 75.8304 66.4612 75.0364 66.4612C87.7956 66.8569 97.7089 68.4947 97.7089 68.4947C97.7089 68.4947 79.9682 69.6373 78.7942 69.8862C90.5261 69.8862 94.0533 71.3249 94.0533 71.3249C94.0533 71.3249 88.2227 72.2185 86.9911 72.567C86.5456 72.6928 85.3114 72.9234 83.6945 73.1173C84.52 73.1776 85.3559 73.209 86.1971 73.209C96.907 73.209 106.477 68.2275 112.711 60.4603C103.477 60.3791 84.2291 60.1904 78.561 60.0044Z" fill="white"/>
<path d="M71.6586 65.0957C71.0637 64.9699 70.0313 64.7708 70.0313 64.7708L67.1409 65.418L69.7404 65.9631L73.8362 65.0957C73.8362 65.0957 72.2561 65.2189 71.6586 65.0957Z" fill="white"/>
<path d="M85.0781 36.7945V35.0676H82.9922C83.0603 35.4659 83.2228 35.8354 83.4534 36.1473L85.0781 36.7945Z" fill="white"/>
<path d="M85.948 32.1116V34.1975H88.0339C87.8505 33.1336 87.0119 32.295 85.948 32.1116Z" fill="white"/>
<path d="M85.0781 32.1116C84.0142 32.295 83.1756 33.1336 82.9922 34.1975H85.0781V32.1116Z" fill="white"/>
<path d="M88.0339 35.0676H85.948V37.1431L85.9663 37.1509C87.0224 36.9596 87.8505 36.1263 88.0339 35.0676Z" fill="white"/>
<path d="M78.7916 68.3474C78.7916 68.3474 77.1695 68.0985 76.5091 68.0985C75.8488 68.0985 74.2896 67.5508 74.2896 67.5508L71.2026 68.0985C71.2026 68.0985 72.9505 68.6933 73.8362 68.6933C74.722 68.6933 78.7916 68.3474 78.7916 68.3474Z" fill="white"/>
<path d="M120.002 42.7113C120.007 42.6563 120.015 42.6013 120.017 42.5463C118.702 42.2501 116.102 41.7863 112.109 41.5688C105.885 38.2565 103.867 37.2005 101.252 36.1392C101.252 36.1392 107.407 40.8063 111.349 42.5279C115.169 42.389 118.414 42.5856 120.002 42.714V42.7113Z" fill="white"/>
<path d="M83.247 44.9443H82.584V50.2403H83.247V44.9443Z" fill="white"/>
<path d="M112.358 55.3552H113.301V51.9617L112.358 54.5926V55.3552Z" fill="white"/>
<path d="M113.343 43.5627H112.399V50.5201H109.286L107.575 53.7984L106.136 53.8324L108.055 50.5201H104.082L102.368 53.7984L100.424 53.8429V44.5297H97.709V53.898H98.1152H98.0994V54.5924H110.513L112.2 51.1176H112.913L113.822 51.1098L113.343 50.9185V43.5627Z" fill="white"/>
<path d="M118.712 45.5075C118.712 44.9677 118.275 44.53 117.735 44.53C117.195 44.53 116.758 44.9677 116.758 45.5075V49.9099H118.456C118.542 49.6452 118.629 49.3806 118.71 49.1133V45.5075H118.712Z" fill="white"/>
<path d="M86.1948 0C76.9051 0 68.3597 3.24679 61.6303 8.66596C61.6303 8.66596 61.6286 8.66771 61.6251 8.6712C61.2556 8.92015 60.8415 9.24771 60.4275 9.67485C60.4223 9.67747 60.4196 9.68271 60.4196 9.68533C60.2912 9.79277 60.1628 9.90807 60.0371 10.0208L58.7818 9.01186L58.5853 9.90807C56.8846 8.35412 55.3359 7.5706 55.2153 7.51032L52.4429 6.13457L51.544 9.0931C51.4654 9.34991 51.1038 10.7178 51.62 12.6465C49.1725 12.7434 47.0761 13.5322 45.6741 14.8922L40.7502 19.6301L45.8916 19.4519L44.0652 21.1133L46.9136 20.9823C44.6417 23.5739 44.5185 26.1525 44.5106 26.4932L44.4189 31.5979L48.3549 28.8778C47.4535 32.1744 46.9713 35.6439 46.9713 39.2235C46.9713 60.853 64.5679 78.4496 86.1948 78.4496C107.822 78.4496 125.421 60.853 125.421 39.2235C125.421 17.594 107.824 0 86.1948 0ZM118.416 56.6078C118.186 57.035 117.947 57.4542 117.701 57.8709C117.169 58.7671 116.6 59.6397 115.995 60.4861C109.357 69.7732 98.4849 75.8291 86.1974 75.8291C80.2253 75.8291 74.5886 74.3983 69.6071 71.8643C63.407 68.7066 58.2263 63.8325 54.6886 57.8709C54.3637 57.3258 54.0545 56.7703 53.761 56.2069C53.5304 55.7719 53.3103 55.3316 53.1032 54.8835C50.8496 50.1352 49.5918 44.8261 49.5918 39.2235C49.5918 34.6848 50.4172 30.34 51.9266 26.3281L51.9555 26.3464L51.9345 26.3674C51.9686 26.3359 52.021 26.2966 52.0603 26.273C52.3223 26.2416 52.6027 26.1839 52.9224 26.0791C52.6866 27.8165 52.8884 29.4071 53.284 30.7383C52.5844 33.4506 52.2123 36.2938 52.2123 39.2235C52.2123 42.1532 52.5975 45.0934 53.3234 47.8501C53.7505 46.1521 54.5366 44.3754 55.9203 42.8083C57.8358 46.5687 57.0733 49.8208 57.0156 50.0461C57.0576 49.923 57.4218 48.9193 58.5696 47.9785C58.7504 43.1935 59.3321 30.6466 60.6371 23.3617C59.3295 26.0922 58.85 27.73 58.85 27.73L57.7572 26.0424C57.7572 26.0424 58.056 27.6304 57.5083 28.8228C56.9632 30.0151 56.2662 32.6959 56.2662 32.6959C56.2662 32.6959 52.2935 27.6802 56.7614 21.4749C53.4832 24.0561 52.3931 24.4046 51.7956 24.4544C51.1981 24.5042 50.6531 25.0493 50.6531 25.0493L51.2977 23.6578L47.1259 26.5377C47.1259 26.5377 47.1757 23.8072 50.205 21.4723C53.2343 19.1374 57.1571 19.3366 57.1571 19.3366C57.1571 19.3366 54.9716 17.9294 53.4491 18.029C51.9266 18.1285 51.1981 18.1626 51.1981 18.1626L51.9266 17.4996C51.9266 17.4996 48.4519 16.7371 47.4901 16.7711C49.542 14.7848 54.1095 14.7848 57.3537 16.5405C53.1163 12.9007 54.044 9.85304 54.044 9.85304C54.044 9.85304 58.7111 12.1696 60.134 16.9048C60.1995 14.7534 60.4327 13.6947 60.4327 13.6947C60.4327 13.6947 60.7629 13.9593 60.8311 14.4232C61.494 11.2786 63.745 10.4846 63.745 10.4846C63.745 10.4846 62.9825 11.6769 62.4872 15.9797C64.6046 13.8283 66.4913 13.8624 66.4913 13.8624C66.4913 13.8624 65.299 14.625 64.9347 15.5841C68.9729 13.3986 72.2171 14.9892 72.2171 14.9892C72.2171 14.9892 70.7601 15.5841 70.3958 15.9483C69.4367 15.55 69.138 15.9142 69.138 15.9142L69.5023 16.2444C69.5023 16.2444 68.1789 16.7082 67.9457 16.9388C67.3168 16.4436 66.9866 16.475 66.9866 16.475L67.0521 17.1039C67.0521 17.1039 66.093 17.6673 65.7288 18.1312C65.7288 18.1312 72.4477 16.7397 75.9906 21.8392C72.7464 21.509 72.1175 21.2102 71.3235 20.6809C71.6222 21.4094 70.8937 21.0792 70.2308 20.9115C69.5678 20.7438 68.344 20.2485 67.0521 20.6128C68.5746 20.7464 69.4027 21.1421 69.4027 21.1421C69.4027 21.1421 68.7083 21.1421 68.475 21.5064C72.2485 22.3004 75.3931 26.902 75.5268 28.6236C72.5158 27.5309 71.5882 26.2075 71.5882 26.2075C71.5882 26.2075 71.6537 26.8364 71.7533 27.067C69.9006 26.3045 68.344 24.0561 68.344 24.0561L68.2104 25.1148C68.2104 25.1148 65.1994 22.3999 64.5024 22.3344C68.2104 27.0015 69.0384 30.1121 68.8707 33.6209C68.8707 33.6209 64.8666 31.7682 64.7985 27.4654C63.8394 28.1283 63.6402 28.8228 63.6402 28.8228C63.6402 28.8228 62.1177 25.4476 62.0837 23.7574C60.7131 30.0465 60.818 44.0321 60.852 46.7522C61.7089 46.4744 62.7493 46.2883 64.0045 46.27C62.0679 48.5341 61.819 49.5744 61.819 49.5744C61.819 49.5744 63.4332 49.1447 65.7916 49.0739C65.3042 49.7264 64.8325 50.4602 64.4473 51.2411C64.3084 51.1913 64.1617 51.1651 64.0097 51.1651C63.6455 51.1651 62.9615 51.3223 62.4924 52.3626C62.2094 52.9889 62.0024 53.9297 61.8583 54.8102C60.1838 54.8547 58.0167 54.9831 56.2766 55.3421C56.7431 56.2069 57.2462 57.0507 57.786 57.8683H64.7801C64.6124 56.3458 64.2744 53.4842 64.0621 53.403C63.5721 53.2169 63.2367 57.1607 63.2367 57.1607H62.3614C62.3614 57.1607 62.613 54.0031 63.2078 52.6876C63.8027 51.3695 64.7906 51.9434 65.071 53.4501C65.2518 54.4223 65.4981 56.5109 65.6501 57.8709H66.4625C66.3629 56.9668 66.2031 55.5885 66.0432 54.6031C66.0432 54.5953 66.0406 54.5848 66.038 54.5743C65.9698 54.0764 65.9017 53.6336 65.8414 53.3086C65.7497 52.816 65.5899 52.3888 65.3776 52.0508C65.9227 51.7075 66.5411 52.3128 66.7507 53.4501C66.9316 54.4223 67.1805 56.5109 67.3325 57.8709H114.583C114.829 57.4962 115.067 57.1188 115.301 56.7336C114.352 56.7782 113.424 56.8253 112.659 56.8777C109.729 57.0743 106.055 57.3232 104.069 57.0271C102.083 56.7284 100.196 56.6288 100.196 56.6288L99.9471 57.1634H98.9068L99.3025 56.0077C99.3025 56.0077 96.4488 56.6288 92.4499 56.6288C88.451 56.6288 79.2688 55.7588 79.2688 55.7588L79.0697 54.915L78.2259 54.9648L78.7473 56.5554L77.631 56.4794L76.9838 54.991H75.5451L74.9241 56.579L73.8077 56.3798L73.7815 55.8846L72.7648 55.7588L72.4922 54.915L70.4797 54.8416L69.6621 56.2305L68.5432 56.2567L67.7308 54.6398C67.6574 54.1157 67.5867 53.6493 67.5238 53.3086C67.3115 52.1687 66.7324 51.3826 66.0039 51.207L65.9358 51.0681L66.6564 49.0818L68.1475 49.0084V43.5709H64.0019L83.9281 25.3139L101.737 41.0054L102.002 40.4761L103.49 40.3424L102.463 40.1118L84.1927 24.0561L107.033 31.6031L111.202 34.7477L119.865 34.6822C117.638 18.0814 103.383 5.24098 86.1843 5.24098C78.2233 5.24098 70.8937 7.98987 65.0972 12.5915C65.3383 11.7083 65.8414 9.80587 66.3288 8.4668C72.0494 4.76667 78.8653 2.62049 86.1843 2.62049C104.853 2.62049 120.261 16.6008 122.507 34.6612C122.549 34.994 122.583 35.3294 122.614 35.6649C122.727 36.8362 122.787 38.0207 122.787 39.2235C122.787 42.2737 122.41 45.2375 121.708 48.0729C121.474 49.0163 121.202 49.9439 120.898 50.8559C120.746 51.3092 120.586 51.7599 120.416 52.2054C120.314 52.4779 120.206 52.7478 120.096 53.0178C119.936 53.4108 119.771 53.7987 119.598 54.1839C119.457 54.4983 119.313 54.8075 119.163 55.1168C118.919 55.6199 118.671 56.1178 118.406 56.6078H118.416Z" fill="white"/>
<path d="M104.515 47.7086H104.811C104.819 47.423 105.052 47.195 105.34 47.195C105.374 47.195 105.408 47.195 105.44 47.2055V45.7065H103.852V47.2133C103.894 47.2002 103.938 47.195 103.985 47.195C104.274 47.195 104.507 47.423 104.515 47.7086Z" fill="white"/>
<path d="M89.6173 51.7966H83.6924V52.4413H89.6173V51.7966Z" fill="white"/>
<path d="M88.0682 44.53C87.2506 44.53 86.5876 45.193 86.5876 46.0106V50.2401H89.5514V46.0106C89.5514 45.193 88.8884 44.53 88.0708 44.53H88.0682Z" fill="white"/>
<path d="M83.6924 53.7987L89.6671 53.7489V53.1042L83.6924 53.154V53.7987Z" fill="white"/>
<path d="M96.4014 44.53H93.6865V53.8983H96.4014V44.53Z" fill="white"/>
<path d="M91.834 53.8983H92.6437V44.53H91.834V53.8983Z" fill="white"/>
<path d="M81.3573 36.1392L81.2236 36.9017C81.2236 36.9017 73.1473 40.0463 69.738 41.5688C69.738 41.5688 74.0749 40.974 81.622 40.7407C89.169 40.5075 93.4063 41.5688 93.4063 41.5688L81.622 36.8677L81.3573 36.1392Z" fill="white"/>
</g>
<g clip-path="url(#clip1_11_1393)">
<path d="M24.4261 131.46C25.1451 131.46 25.7312 132.057 25.7312 132.784C25.7312 133.51 25.1424 134.107 24.4261 134.107H24.3962L25.6037 135.694C25.856 136.036 26.1463 136.399 26.6185 136.501H25.7014C25.2292 136.399 24.9389 136.036 24.6784 135.694L24.3501 135.26L23.4709 134.107H23.1589V135.694C23.1589 136.168 23.2973 136.407 23.357 136.501H22.2336C22.2961 136.407 22.4317 136.159 22.4236 135.681V132.283C22.4317 131.804 22.2933 131.557 22.2336 131.463H24.4261V131.46ZM23.1589 131.713V133.851H23.9458C24.5265 133.851 24.9986 133.37 24.9986 132.784C24.9986 132.198 24.5237 131.716 23.9458 131.716H23.1589V131.713Z" fill="#9AA6B6"/>
<path d="M30.0105 132.682V135.461C30.0186 135.926 30.1488 136.173 30.2085 136.267L29.3077 136.498V135.747C29.1178 136.204 28.6809 136.498 28.1925 136.498C27.4137 136.498 26.8575 135.871 26.8575 135.098V133.48C26.8575 133.015 26.7191 132.775 26.6594 132.682H27.5603V134.911C27.5603 136.388 29.3077 136.388 29.3077 134.979V133.477C29.3077 133.012 29.1774 132.773 29.1178 132.679H30.0105V132.682Z" fill="#9AA6B6"/>
<path d="M32.398 132.93C31.7794 132.938 31.6274 133.441 31.9558 133.736C32.2217 133.975 32.6205 134.17 32.9706 134.385C33.1849 134.525 33.3749 134.663 33.5132 134.82C33.8877 135.246 33.8795 135.879 33.3667 136.228C33.1144 136.399 32.7725 136.498 32.3438 136.498C31.8635 136.498 31.1987 136.374 30.9382 136.149L31.329 135.243C31.4592 135.631 31.6573 136.234 32.3519 136.25C32.6178 136.259 32.8783 136.143 32.9923 135.901C33.2066 135.428 32.7861 135.175 32.3519 134.911C32.0073 134.701 31.6274 134.492 31.3751 134.228C30.9328 133.78 30.9464 133.122 31.6356 132.811C31.8174 132.726 32.1457 132.679 32.3926 132.679C32.5825 132.679 33.0113 132.748 33.2093 132.742C33.3097 132.734 33.3857 132.726 33.4535 132.679V133.631C33.307 133.251 33.0031 132.919 32.4008 132.927L32.398 132.93Z" fill="#9AA6B6"/>
<path d="M34.2405 132.899V132.674C34.7072 132.682 35.2336 132.31 35.2336 131.645H35.4995V132.674H36.1398V132.899H35.4995V135.268C35.4995 135.532 35.5076 135.895 35.6677 136.113C35.8142 136.322 36.186 136.283 36.3406 136.121V136.214C36.2782 136.322 36.0883 136.501 35.8441 136.501C35.1033 136.501 34.7994 135.912 34.7994 135.216V132.902H34.2432L34.2405 132.899Z" fill="#9AA6B6"/>
<path d="M37.8466 135.694C37.8466 136.168 37.9769 136.407 38.0366 136.501H36.9458C37.0082 136.407 37.1357 136.168 37.1439 135.694V133.722C37.1357 133.257 37.0055 133.017 36.9458 132.916L37.8466 132.684V135.697V135.694ZM37.9389 131.46C37.9389 131.661 37.7408 131.815 37.4966 131.815C37.2524 131.815 37.0543 131.661 37.0543 131.46C37.0543 131.259 37.2524 131.105 37.4966 131.105C37.7408 131.105 37.9389 131.268 37.9389 131.46Z" fill="#9AA6B6"/>
<path d="M40.6578 132.96C39.917 133.007 39.567 133.78 39.5507 134.556C39.5426 135.345 39.8872 136.135 40.6958 136.151C41.5369 136.16 41.9032 135.711 42.0389 134.99L42.1013 135.895C41.7893 136.322 41.1408 136.498 40.6442 136.498C40.5058 136.498 40.3078 136.481 40.1775 136.443C39.3825 136.25 38.772 135.491 38.772 134.594C38.772 133.54 39.5968 132.682 40.5818 132.682C40.9861 132.682 41.5966 132.737 41.9873 132.93V133.975C41.7513 133.386 41.3307 132.921 40.6578 132.96Z" fill="#9AA6B6"/>
<path d="M48.6134 131.46V132.467C48.6134 132.608 48.6053 131.738 47.8889 131.716H46.269V133.73H47.3924C47.7967 133.714 48.1169 133.375 48.1169 132.971V134.743C48.1169 134.341 47.7967 134 47.3924 133.983H46.269L46.2473 136.245H47.3707C48.0436 136.245 48.6161 135.835 48.8603 135.238L48.6161 136.501H45.3411C45.4035 136.407 45.5391 136.159 45.531 135.681V132.283C45.5391 131.804 45.4008 131.557 45.3411 131.463H48.6161L48.6134 131.46Z" fill="#9AA6B6"/>
<path d="M50.407 135.694C50.407 136.168 50.5453 136.407 50.605 136.501H49.5061C49.5739 136.407 49.7042 136.168 49.7042 135.694V132.14C49.7042 131.675 49.5739 131.435 49.5061 131.342L50.407 131.103V135.694Z" fill="#9AA6B6"/>
<path d="M52.1028 134.756C52.2167 135.444 52.6075 136.033 53.3401 136.08C53.7661 136.127 54.089 136.003 54.4092 135.73V135.901C54.2626 136.14 53.6603 136.435 53.3184 136.481C53.2505 136.49 53.18 136.498 53.1122 136.498C52.0268 136.498 51.3186 135.593 51.3186 134.539C51.3186 133.873 51.6306 133.232 52.2113 132.899C52.4555 132.759 52.7241 132.682 53.0063 132.682C53.9832 132.682 54.6859 133.433 54.6778 134.346C54.6778 134.487 54.6615 134.616 54.6316 134.756H52.1055H52.1028ZM53.8665 134.462C53.9343 133.92 53.6982 132.976 53.0199 132.952C52.3253 132.921 52.0349 133.881 52.0729 134.462H53.8665Z" fill="#9AA6B6"/>
<path d="M57.9612 132.946C57.9612 132.946 57.9775 132.963 57.9829 132.963C58.0752 132.778 58.1891 132.567 58.3411 132.335L58.8214 132.985C58.5934 132.985 58.4089 133.07 58.257 133.194C58.3709 133.318 58.4632 133.458 58.5229 133.62C58.569 133.752 58.5989 133.89 58.5989 134.039C58.5989 134.187 58.569 134.325 58.5229 134.457C58.4089 134.751 58.2027 134.977 57.9585 135.131C57.6763 135.31 57.348 135.395 57.0278 135.395C56.7755 135.395 56.5177 135.34 56.2789 135.233C55.7607 135.587 55.9967 135.797 56.5231 135.797H57.3019C58.4252 135.813 58.8214 136.3 58.8214 136.842C58.8295 137.5 58.2027 138.003 57.2557 138.003C56.8514 138.003 56.3006 138.011 55.9126 137.863C55.2098 137.607 55.0715 137.142 55.4079 136.724C55.2315 137.266 56.6669 137.288 56.9491 137.288C57.1553 137.288 57.462 137.266 57.6817 137.233C58.8512 137.101 58.7725 136.49 57.5895 136.498C57.215 136.498 56.789 136.506 56.4526 136.506C55.2777 136.506 55.0932 135.53 56.0618 135.106C55.8339 134.952 55.6331 134.735 55.5354 134.457C55.4812 134.325 55.4595 134.187 55.4595 134.039C55.4595 133.89 55.4812 133.752 55.5354 133.62C55.6413 133.326 55.8556 133.103 56.0917 132.946C56.3739 132.767 56.7022 132.682 57.0251 132.682C57.348 132.682 57.6736 132.767 57.9558 132.946H57.9612ZM56.3739 134.743C56.496 134.927 56.6724 135.059 56.8786 135.106C56.9247 135.114 56.979 135.123 57.0305 135.123C57.0821 135.123 57.1363 135.114 57.1906 135.106C57.3887 135.059 57.5651 134.927 57.6953 134.743C57.8337 134.542 57.9015 134.294 57.9015 134.039C57.9015 133.783 57.8337 133.535 57.6953 133.334C57.5651 133.15 57.3887 133.018 57.1906 132.971C57.1363 132.963 57.0848 132.954 57.0305 132.954C56.9763 132.954 56.9247 132.963 56.8786 132.971C56.6724 133.018 56.496 133.15 56.3739 133.334C56.2355 133.535 56.1595 133.783 56.1595 134.039C56.1595 134.294 56.2355 134.542 56.3739 134.743Z" fill="#9AA6B6"/>
<path d="M61.6999 135.926C61.3716 136.327 61.0514 136.498 60.4707 136.498C59.3257 136.498 58.859 135.191 60.1641 134.569C60.6308 134.352 61.2033 134.245 61.6999 134.19C61.6999 133.972 61.6836 133.763 61.6239 133.54C61.5099 133.122 61.2495 132.968 60.989 132.968C60.4761 132.968 60.2021 133.51 60.194 133.967L59.6133 133.408C59.9036 132.913 60.4382 132.679 60.9808 132.679C61.9197 132.679 62.3999 133.251 62.3999 134.198V135.469C62.4081 135.942 62.5383 136.182 62.598 136.275L61.6972 136.506V135.926H61.6999ZM61.6999 134.487C61.2576 134.495 60.411 134.649 60.1261 135.067C59.8195 135.532 60.1804 136.096 60.8832 136.096C61.3254 136.096 61.6999 135.747 61.6999 135.252V134.484V134.487Z" fill="#9AA6B6"/>
<path d="M63.3662 136.498C63.434 136.405 63.5643 136.165 63.5643 135.692V133.711C63.5643 133.532 63.5426 133.386 63.5182 133.271C63.472 133.087 63.4042 132.968 63.3662 132.916L64.2671 132.685V133.436C64.457 132.979 64.902 132.685 65.3904 132.685C66.1691 132.685 66.7254 133.304 66.7254 134.085V135.695C66.7254 136.168 66.8556 136.407 66.9153 136.501H65.8245C65.8869 136.407 66.0145 136.168 66.0226 135.695V134.261C66.0226 132.781 64.2671 132.781 64.2671 134.198V135.692C64.2671 136.165 64.4054 136.405 64.4651 136.498H63.3662Z" fill="#9AA6B6"/>
<path d="M69.512 132.96C68.7713 133.007 68.4212 133.78 68.405 134.556C68.3968 135.345 68.7414 136.135 69.55 136.151C70.3912 136.16 70.7575 135.711 70.8931 134.99L70.9555 135.895C70.6435 136.322 69.995 136.498 69.4985 136.498C69.3601 136.498 69.162 136.481 69.0318 136.443C68.2367 136.25 67.6262 135.491 67.6262 134.594C67.6262 133.54 68.4511 132.682 69.436 132.682C69.8403 132.682 70.4509 132.737 70.8416 132.93V133.975C70.6055 133.386 70.1849 132.921 69.512 132.96Z" fill="#9AA6B6"/>
<path d="M72.5156 134.756C72.6296 135.444 73.0203 136.033 73.7529 136.08C74.1789 136.127 74.5018 136.003 74.822 135.73V135.901C74.6755 136.14 74.0731 136.435 73.7312 136.481C73.6634 136.49 73.5928 136.498 73.525 136.498C72.4396 136.498 71.7314 135.593 71.7314 134.539C71.7314 133.873 72.0435 133.232 72.6242 132.899C72.8684 132.759 73.137 132.682 73.4192 132.682C74.396 132.682 75.0988 133.433 75.0906 134.346C75.0906 134.487 75.0743 134.616 75.0445 134.756H72.5183H72.5156ZM74.2793 134.462C74.3472 133.92 74.1111 132.976 73.4327 132.952C72.7381 132.921 72.4478 133.881 72.4858 134.462H74.2793Z" fill="#9AA6B6"/>
<path d="M76.0998 135.788C76.2598 135.788 76.3901 135.849 76.4742 135.942C76.58 136.074 76.58 136.305 76.5366 136.514C76.4606 136.894 76.2463 137.202 75.842 137.266C76.0482 137.142 76.2327 136.894 76.1079 136.655C76.0699 136.569 75.9858 136.501 75.8854 136.454C75.747 136.391 75.6575 136.275 75.6575 136.143C75.6575 135.942 75.8555 135.788 76.0998 135.788Z" fill="#9AA6B6"/>
<path d="M81.7869 131.46C82.506 131.46 83.092 132.057 83.092 132.784C83.092 133.51 82.5032 134.107 81.7869 134.107H81.7571L82.9645 135.694C83.2169 136.036 83.5072 136.399 83.9793 136.501H83.0622C82.5901 136.399 82.2997 136.036 82.0392 135.694L81.7109 135.26L80.8318 134.107H80.5197V135.694C80.5197 136.168 80.6581 136.407 80.7178 136.501H79.5945C79.6569 136.407 79.7926 136.159 79.7844 135.681V132.283C79.7926 131.804 79.6542 131.557 79.5945 131.463H81.7869V131.46ZM80.5197 131.713V133.851H81.3066C81.8873 133.851 82.3594 133.37 82.3594 132.784C82.3594 132.198 81.8846 131.716 81.3066 131.716H80.5197V131.713Z" fill="#9AA6B6"/>
<path d="M87.7268 134.594C87.7268 135.648 86.8803 136.498 85.841 136.498C84.8018 136.498 83.9634 135.645 83.9634 134.594C83.9634 133.543 84.8018 132.682 85.841 132.682C86.8803 132.682 87.7268 133.54 87.7268 134.594ZM84.9619 135.631C85.1139 135.879 85.3445 136.096 85.6348 136.173C85.7027 136.195 85.7732 136.204 85.841 136.204C85.917 136.204 85.9876 136.195 86.0554 136.173C86.3457 136.096 86.5737 135.879 86.7202 135.631C86.9101 135.323 86.9942 134.949 86.9942 134.594C86.9942 134.239 86.9101 133.859 86.7202 133.549C86.5764 133.301 86.3457 133.084 86.0554 133.007C85.9876 132.985 85.917 132.976 85.841 132.976C85.7732 132.976 85.7027 132.985 85.6348 133.007C85.3445 133.084 85.1166 133.301 84.9619 133.549C84.7801 133.857 84.696 134.231 84.696 134.594C84.696 134.957 84.7801 135.323 84.9619 135.631Z" fill="#9AA6B6"/>
<path d="M92.1929 134.594C92.1929 135.648 91.3463 136.498 90.3071 136.498C89.2679 136.498 88.4294 135.645 88.4294 134.594C88.4294 133.543 89.2679 132.682 90.3071 132.682C91.3463 132.682 92.1929 133.54 92.1929 134.594ZM89.428 135.631C89.5799 135.879 89.8106 136.096 90.1009 136.173C90.1687 136.195 90.2393 136.204 90.3071 136.204C90.3831 136.204 90.4536 136.195 90.5215 136.173C90.8118 136.096 91.0397 135.879 91.1862 135.631C91.3762 135.323 91.4603 134.949 91.4603 134.594C91.4603 134.239 91.3762 133.859 91.1862 133.549C91.0397 133.301 90.8118 133.084 90.5215 133.007C90.4536 132.985 90.3831 132.976 90.3071 132.976C90.2393 132.976 90.1687 132.985 90.1009 133.007C89.8106 133.084 89.5826 133.301 89.428 133.549C89.2462 133.857 89.1621 134.231 89.1621 134.594C89.1621 134.957 89.2462 135.323 89.428 135.631Z" fill="#9AA6B6"/>
<path d="M92.6028 132.899V132.674C93.0695 132.682 93.5959 132.31 93.5959 131.645H93.8645V132.674H94.5049V132.899H93.8645V135.268C93.8645 135.532 93.8726 135.895 94.0327 136.113C94.1793 136.322 94.551 136.283 94.7057 136.121V136.214C94.6433 136.322 94.4533 136.501 94.2091 136.501C93.4684 136.501 93.1645 135.912 93.1645 135.216V132.902H92.6082L92.6028 132.899Z" fill="#9AA6B6"/>
<path d="M95.8481 134.756C95.9621 135.444 96.3528 136.033 97.0854 136.08C97.5141 136.127 97.8343 136.003 98.1545 135.73V135.901C98.008 136.14 97.4056 136.435 97.0637 136.481C96.9959 136.49 96.9253 136.498 96.8575 136.498C95.7722 136.498 95.064 135.593 95.064 134.539C95.064 133.873 95.376 133.232 95.9567 132.899C96.2009 132.759 96.4695 132.682 96.7517 132.682C97.7285 132.682 98.4313 133.433 98.4231 134.346C98.4231 134.487 98.4069 134.616 98.377 134.756H95.8481ZM97.6118 134.462C97.6797 133.92 97.4436 132.976 96.7653 132.952C96.0706 132.921 95.7803 133.881 95.8183 134.462H97.6118Z" fill="#9AA6B6"/>
<path d="M102.686 131.103V135.461C102.686 135.926 102.824 136.173 102.884 136.267L101.983 136.498V135.926C101.777 136.258 101.258 136.498 100.737 136.498C99.7606 136.498 99.1338 135.631 99.1338 134.646C99.1338 133.873 99.4784 133.144 100.211 132.836C100.455 132.734 100.678 132.682 100.889 132.682C101.294 132.682 101.706 132.822 101.98 133.216V132.14C101.98 131.675 101.842 131.435 101.782 131.342L102.683 131.103H102.686ZM101.983 135.199V134.145C101.983 133.48 101.511 132.954 100.876 132.954C100.119 132.954 99.8311 133.705 99.8311 134.341C99.8311 135.13 100.197 136.027 101.098 136.027C101.595 136.027 101.983 135.725 101.983 135.199Z" fill="#9AA6B6"/>
<path d="M106.954 135.694C106.954 136.168 107.084 136.407 107.144 136.501H106.053C106.113 136.407 106.243 136.168 106.251 135.694V133.722C106.243 133.257 106.113 133.017 106.053 132.916L106.954 132.684V135.697V135.694ZM107.043 131.46C107.043 131.661 106.845 131.815 106.601 131.815C106.357 131.815 106.159 131.661 106.159 131.46C106.159 131.259 106.357 131.105 106.601 131.105C106.845 131.105 107.043 131.268 107.043 131.46Z" fill="#9AA6B6"/>
<path d="M107.934 136.498C108.001 136.405 108.132 136.165 108.132 135.692V133.711C108.132 133.532 108.11 133.386 108.086 133.271C108.039 133.087 107.972 132.968 107.934 132.916L108.834 132.685V133.436C109.024 132.979 109.469 132.685 109.958 132.685C110.737 132.685 111.293 133.304 111.293 134.085V135.695C111.293 136.168 111.423 136.407 111.483 136.501H110.392C110.454 136.407 110.582 136.168 110.59 135.695V134.261C110.59 132.781 108.834 132.781 108.834 134.198V135.692C108.834 136.165 108.973 136.405 109.033 136.498H107.934Z" fill="#9AA6B6"/>
<path d="M114.416 132.899V132.674C114.883 132.682 115.409 132.31 115.409 131.645H115.678V132.674H116.318V132.899H115.678V135.268C115.678 135.532 115.686 135.895 115.846 136.113C115.992 136.322 116.364 136.283 116.519 136.121V136.214C116.456 136.322 116.267 136.501 116.022 136.501C115.282 136.501 114.978 135.912 114.978 135.216V132.902H114.421L114.416 132.899Z" fill="#9AA6B6"/>
<path d="M117.113 136.498C117.175 136.405 117.303 136.165 117.311 135.692V132.137C117.303 131.672 117.172 131.433 117.113 131.339L118.014 131.1V133.43C118.204 132.974 118.649 132.679 119.129 132.679C119.908 132.679 120.464 133.298 120.464 134.08V135.689C120.464 136.163 120.602 136.402 120.662 136.495H119.563C119.631 136.402 119.761 136.163 119.761 135.689V134.256C119.761 132.776 118.014 132.776 118.014 134.193V135.687C118.014 136.16 118.144 136.399 118.204 136.493H117.113V136.498Z" fill="#9AA6B6"/>
<path d="M122.168 134.756C122.282 135.444 122.672 136.033 123.405 136.08C123.834 136.127 124.154 136.003 124.474 135.73V135.901C124.328 136.14 123.725 136.435 123.383 136.481C123.315 136.49 123.245 136.498 123.177 136.498C122.092 136.498 121.384 135.593 121.384 134.539C121.384 133.873 121.696 133.232 122.276 132.899C122.52 132.759 122.789 132.682 123.071 132.682C124.048 132.682 124.751 133.433 124.743 134.346C124.743 134.487 124.726 134.616 124.697 134.756H122.168ZM123.931 134.462C123.999 133.92 123.763 132.976 123.085 132.952C122.39 132.921 122.1 133.881 122.138 134.462H123.931Z" fill="#9AA6B6"/>
<path d="M129.035 131.46C128.968 131.554 128.837 131.793 128.837 132.266L128.821 136.239H130.126C130.737 136.192 131.25 135.791 131.477 135.241L131.225 136.503H127.912C127.975 136.41 128.11 136.162 128.102 135.683V132.286C128.11 131.807 127.972 131.559 127.912 131.466H129.035V131.46Z" fill="#9AA6B6"/>
<path d="M134.297 135.926C133.968 136.327 133.648 136.498 133.068 136.498C131.923 136.498 131.456 135.191 132.761 134.569C133.228 134.352 133.8 134.245 134.297 134.19C134.297 133.972 134.281 133.763 134.221 133.54C134.107 133.122 133.846 132.968 133.586 132.968C133.076 132.968 132.799 133.51 132.791 133.967L132.21 133.408C132.501 132.913 133.035 132.679 133.578 132.679C134.517 132.679 134.997 133.251 134.997 134.198V135.469C135.005 135.942 135.135 136.182 135.195 136.275L134.294 136.506V135.926H134.297ZM134.297 134.487C133.855 134.495 133.008 134.649 132.723 135.067C132.416 135.532 132.777 136.096 133.48 136.096C133.922 136.096 134.297 135.747 134.297 135.252V134.484V134.487Z" fill="#9AA6B6"/>
<path d="M135.963 136.498C136.03 136.405 136.161 136.165 136.161 135.692V133.711C136.161 133.532 136.139 133.386 136.115 133.271C136.068 133.087 136.001 132.968 135.963 132.916L136.863 132.685V133.436C137.053 132.979 137.498 132.685 137.987 132.685C138.766 132.685 139.322 133.304 139.322 134.085V135.695C139.322 136.168 139.452 136.407 139.512 136.501H138.421C138.483 136.407 138.611 136.168 138.619 135.695V134.261C138.619 132.781 136.863 132.781 136.863 134.198V135.692C136.863 136.165 137.002 136.405 137.062 136.498H135.963Z" fill="#9AA6B6"/>
<path d="M143.788 131.103V135.461C143.788 135.926 143.927 136.173 143.986 136.267L143.085 136.498V135.926C142.879 136.258 142.361 136.498 141.84 136.498C140.863 136.498 140.236 135.631 140.236 134.646C140.236 133.873 140.581 133.144 141.314 132.836C141.558 132.734 141.78 132.682 141.992 132.682C142.396 132.682 142.809 132.822 143.083 133.216V132.14C143.083 131.675 142.944 131.435 142.885 131.342L143.785 131.103H143.788ZM143.085 135.199V134.145C143.085 133.48 142.613 132.954 141.978 132.954C141.221 132.954 140.934 133.705 140.934 134.341C140.934 135.13 141.3 136.027 142.201 136.027C142.697 136.027 143.085 135.725 143.085 135.199Z" fill="#9AA6B6"/>
<path d="M16.3563 134.074H0V134.349H16.3563V134.074Z" fill="#9AA6B6"/>
<path d="M166.171 134.074H149.814V134.349H166.171V134.074Z" fill="#9AA6B6"/>
<path d="M4.95194 122.222V101.047C4.95194 100.376 4.8217 99.7626 4.56122 99.2014C4.30073 98.6428 3.9697 98.2604 3.56812 98.0596H18.9286L19.6558 100.123C19.4007 99.6746 18.972 99.3004 18.3724 98.9978C17.7727 98.6951 17.0998 98.5438 16.3617 98.5438H7.75216V109.081H15.214L15.9249 111.145C15.6834 110.685 15.2601 110.308 14.6604 110.011C14.0608 109.714 13.3906 109.566 12.6498 109.566H7.75487V119.228C7.75487 119.899 7.88783 120.516 8.15645 121.074C8.42237 121.633 8.75611 122.015 9.15769 122.216H4.95466L4.95194 122.222Z" fill="#F4923B"/>
<path d="M54.9191 122.222H51.6793L44.581 111.2H40.9587V119.236C40.9587 119.908 41.0916 120.521 41.3603 121.074C41.6262 121.627 41.9599 122.01 42.3615 122.224H38.1585V111.203H37.3743C35.0082 111.203 32.5797 111.343 30.0861 111.621C27.5925 111.901 25.3106 112.586 23.243 113.676C21.1727 114.766 19.6613 116.491 18.7008 118.851C18.5298 119.278 18.4023 119.646 18.3182 119.96C18.2341 120.274 18.1906 120.598 18.1906 120.934C18.1906 121.583 18.3969 122.012 18.8093 122.227H16.8611L18.2069 118.703C19.1051 116.477 20.4726 114.793 22.3123 113.654C24.152 112.512 26.301 111.742 28.7647 111.337L25.1803 101.942L20.3559 114.54C20.0276 114.854 19.7129 115.195 19.409 115.563L24.8873 101.218L23.6853 98.0651H26.651L31.5839 110.966C33.6461 110.798 35.7083 110.716 37.7732 110.716H47.2565C48.4585 110.716 49.4787 110.124 50.3226 108.938C51.1664 107.752 51.587 106.322 51.587 104.643C51.587 102.965 51.1664 101.518 50.3226 100.332C49.4787 99.1463 48.4585 98.5548 47.2565 98.5548H40.9587V110.248H38.1557V101.047C38.1557 100.376 38.0255 99.7654 37.765 99.2096C37.5045 98.6539 37.1681 98.2742 36.7556 98.0596H47.2565C48.5779 98.0596 49.7772 98.3567 50.8517 98.9482C51.9262 99.5425 52.7836 100.332 53.4267 101.323C54.0698 102.313 54.3927 103.416 54.3927 104.635C54.3927 105.788 54.1023 106.844 53.5189 107.805C52.9356 108.768 52.1514 109.544 51.161 110.138C50.1706 110.732 49.0581 111.079 47.8208 111.178L54.9191 122.216V122.222ZM35.8819 122.222L31.9502 111.904C30.9924 111.981 30.0509 112.099 29.1283 112.256L32.9325 122.222H35.8819Z" fill="#F4923B"/>
<path d="M78.0238 122.221V101.452L70.0709 117.324L70.9988 119.236H67.9408L59.1142 100.998V119.233C59.1142 119.905 59.2444 120.521 59.5049 121.079C59.7654 121.638 60.0964 122.02 60.4953 122.221H58.5851V99.9081L57.6924 98.062H60.7314L69.7778 116.735L78.0238 100.293V98.062H80.8267V119.236C80.8267 119.907 80.9597 120.524 81.2283 121.082C81.4942 121.641 81.828 122.023 82.2295 122.224H78.0265L78.0238 122.221Z" fill="#F4923B"/>
<path d="M86.386 122.222V101.047C86.386 100.376 86.2558 99.7626 85.9953 99.2014C85.7348 98.6428 85.4038 98.2604 85.0022 98.0596H89.189V119.234C89.189 119.905 89.3219 120.521 89.5905 121.08C89.8564 121.638 90.1902 122.021 90.5918 122.222H86.3887H86.386Z" fill="#F4923B"/>
<path d="M109.708 122.222L94.7841 100.159V119.234C94.7841 119.905 94.917 120.521 95.1857 121.08C95.4516 121.638 95.7853 122.021 96.1869 122.222H94.2577V99.3885L93.365 98.0623H96.6401L109.708 117.357V101.047C109.708 100.376 109.575 99.7626 109.306 99.2014C109.04 98.6428 108.706 98.2604 108.305 98.0596H110.234V122.219H109.705L109.708 122.222Z" fill="#F4923B"/>
<path d="M115.759 122.222V101.047C115.759 100.376 115.629 99.7626 115.368 99.2014C115.108 98.6428 114.777 98.2604 114.375 98.0596H118.562V119.234C118.562 119.905 118.695 120.521 118.963 121.08C119.229 121.638 119.563 122.021 119.965 122.222H115.762H115.759Z" fill="#F4923B"/>
<path d="M131.271 122.222V98.5494H126.029C125.288 98.5494 124.618 98.7007 124.018 99.0034C123.418 99.306 122.99 99.6802 122.735 100.129L123.462 98.0652H141.88L142.591 100.129C142.347 99.6802 141.924 99.306 141.316 99.0034C140.708 98.7007 140.041 98.5494 139.313 98.5494H134.071V119.236C134.071 119.908 134.201 120.524 134.462 121.083C134.722 121.641 135.053 122.024 135.452 122.224H131.266L131.271 122.222Z" fill="#F4923B"/>
<path d="M152.303 122.222V109.64L145.367 98.0623H148.572L154.815 108.498L159.949 101.047C160.641 100.041 160.985 99.2701 160.985 98.7309C160.985 98.4282 160.858 98.2054 160.603 98.0596H162.605L155.106 108.982V119.234C155.106 119.905 155.238 120.521 155.507 121.08C155.773 121.638 156.107 122.021 156.508 122.222H152.305H152.303Z" fill="#F4923B"/>
</g>
<defs>
<clipPath id="clip0_11_1393">
<rect width="84.6706" height="78.4496" fill="white" transform="translate(40.7502)"/>
</clipPath>
<clipPath id="clip1_11_1393">
<rect width="166.171" height="39.938" fill="white" transform="translate(0 98.062)"/>
</clipPath>
</defs>
</svg>
