<svg width="173" height="50" viewBox="0 0 173 50" fill="none" xmlns="http://www.w3.org/2000/svg">
<g clip-path="url(#clip0_6_485)">
<path d="M20.0805 31.9037H16.989L18.2233 33.9714L25.1846 34.2887V33.9513L20.8922 33.5388L20.0805 31.9037Z" fill="white"/>
<path d="M24.2476 30.3003H22.7913V32.0189H24.2476V30.3003Z" fill="white"/>
<path d="M18.2866 27.765V28.6953L19.0382 27.765H18.2866Z" fill="white"/>
<path d="M25.7343 28.6769C25.1865 28.6452 24.7639 28.6351 24.7639 28.6351V30.0064H26.0516C26.0516 30.0064 25.9882 27.3909 25.9147 27.2856C25.9147 27.2856 25.6825 27.9921 25.736 28.6786L25.7343 28.6769Z" fill="white"/>
<path d="M24.7639 32.0206H26.0499V30.3437L24.7639 30.3003V32.0206Z" fill="white"/>
<path d="M24.2476 28.6351H22.7913V30.0063H24.2476V28.6351Z" fill="white"/>
<path d="M20.533 27.765H19.8666L18.2866 29.7943V31.2189H20.533V27.765Z" fill="white"/>
<path d="M24.0989 38.2437C19.2888 38.0867 17.5802 38.7197 17.5802 38.7197L13.7805 38.9719C13.7805 38.9719 30.2384 39.7 32.8172 39.984C23.8767 39.984 20.533 40.617 20.533 40.617L32.2326 41.6625C32.2326 41.6625 22.3585 42.359 21.8525 42.359C29.9845 42.6112 36.3028 43.655 36.3028 43.655C36.3028 43.655 24.9957 44.3832 24.2475 44.5419C31.7249 44.5419 33.9729 45.4588 33.9729 45.4588C33.9729 45.4588 30.2568 46.0283 29.4718 46.2505C29.1879 46.3306 28.4012 46.4776 27.3707 46.6012C27.8968 46.6396 28.4296 46.6597 28.9657 46.6597C35.7917 46.6597 41.8912 43.4847 45.8646 38.5343C39.9789 38.4825 27.7114 38.3622 24.0989 38.2437Z" fill="white"/>
<path d="M19.6997 41.4888C19.3206 41.4087 18.6625 41.2817 18.6625 41.2817L16.8203 41.6943L18.4771 42.0417L21.0876 41.4888C21.0876 41.4888 20.0805 41.5673 19.6997 41.4888Z" fill="white"/>
<path d="M28.2526 23.4509V22.3502H26.9231C26.9665 22.6041 27.0701 22.8396 27.217 23.0383L28.2526 23.4509Z" fill="white"/>
<path d="M28.8071 20.4663V21.7958H30.1366C30.0197 21.1177 29.4852 20.5832 28.8071 20.4663Z" fill="white"/>
<path d="M28.2526 20.4663C27.5745 20.5832 27.04 21.1177 26.9231 21.7958H28.2526V20.4663Z" fill="white"/>
<path d="M30.1366 22.3502H28.8071V23.673L28.8188 23.678C29.4919 23.5561 30.0197 23.025 30.1366 22.3502Z" fill="white"/>
<path d="M24.2458 43.5614C24.2458 43.5614 23.2119 43.4028 22.791 43.4028C22.3702 43.4028 21.3764 43.0537 21.3764 43.0537L19.4089 43.4028C19.4089 43.4028 20.5229 43.7819 21.0875 43.7819C21.652 43.7819 24.2458 43.5614 24.2458 43.5614Z" fill="white"/>
<path d="M50.5111 27.2221C50.5145 27.187 50.5195 27.152 50.5211 27.1169C49.6827 26.9282 48.0259 26.6326 45.4806 26.4939C41.5139 24.3828 40.2279 23.7097 38.561 23.0333C38.561 23.0333 42.4843 26.0079 44.9962 27.1052C47.4313 27.0167 49.499 27.142 50.5111 27.2238V27.2221Z" fill="white"/>
<path d="M27.0854 28.6451H26.6628V32.0206H27.0854V28.6451Z" fill="white"/>
<path d="M45.6392 35.2808H46.2404V33.1179L45.6392 34.7948V35.2808Z" fill="white"/>
<path d="M46.2672 27.765H45.666V32.1993H43.6818L42.5912 34.2887L41.6743 34.3104L42.8968 32.1993H40.3648L39.2725 34.2887L38.0333 34.3171V28.3813H36.303V34.3522H36.5619H36.5518V34.7948H44.4634L45.539 32.5801H45.9933L46.5729 32.5751L46.2672 32.4532V27.765Z" fill="white"/>
<path d="M49.6893 29.0042C49.6893 28.6601 49.4104 28.3812 49.0663 28.3812C48.7223 28.3812 48.4434 28.6601 48.4434 29.0042V31.8101H49.5256C49.5807 31.6414 49.6359 31.4727 49.6876 31.3024V29.0042H49.6893Z" fill="white"/>
<path d="M28.9642 0C23.0434 0 17.597 2.06935 13.3079 5.52327C13.3079 5.52327 13.3068 5.52438 13.3046 5.52661C13.0691 5.68527 12.8052 5.89404 12.5413 6.16628C12.538 6.16795 12.5363 6.17129 12.5363 6.17296C12.4545 6.24144 12.3727 6.31493 12.2925 6.38675L11.4925 5.74373L11.3672 6.31493C10.2833 5.32451 9.29619 4.82513 9.21936 4.78672L7.45232 3.90988L6.87945 5.7955C6.82934 5.95918 6.59886 6.83101 6.92788 8.06026C5.36794 8.12206 4.0318 8.62478 3.13826 9.4916L0 12.5113L3.27688 12.3977L2.11277 13.4566L3.92825 13.3731C2.48021 15.0249 2.40171 16.6683 2.3967 16.8855L2.33824 20.139L4.84685 18.4053C4.27231 20.5064 3.96499 22.7177 3.96499 24.9992C3.96499 38.7848 15.1802 50 28.9642 50C42.7481 50 53.965 38.7848 53.965 24.9992C53.965 11.2135 42.7498 0 28.9642 0ZM49.5006 36.0791C49.3536 36.3513 49.2017 36.6186 49.0447 36.8841C48.7056 37.4553 48.3432 38.0115 47.9574 38.551C43.7268 44.4701 36.7973 48.3298 28.9658 48.3298C25.1595 48.3298 21.567 47.4179 18.392 45.8028C14.4403 43.7903 11.1384 40.6838 8.88366 36.8841C8.67655 36.5367 8.47947 36.1827 8.29241 35.8236C8.14544 35.5463 8.00515 35.2657 7.8732 34.9801C6.43685 31.9538 5.63517 28.57 5.63517 24.9992C5.63517 22.1064 6.16127 19.3373 7.12329 16.7802L7.14166 16.7919L7.1283 16.8053C7.15002 16.7852 7.18342 16.7602 7.20847 16.7452C7.37549 16.7251 7.5542 16.6884 7.75796 16.6216C7.60764 17.7289 7.73625 18.7427 7.98844 19.5911C7.54251 21.3198 7.30534 23.1319 7.30534 24.9992C7.30534 26.8664 7.55086 28.7404 8.0135 30.4974C8.28573 29.4151 8.78679 28.2827 9.66864 27.284C10.8895 29.6807 10.4035 31.7533 10.3668 31.897C10.3935 31.8185 10.6256 31.1788 11.3572 30.5792C11.4724 27.5295 11.8432 19.5327 12.675 14.8896C11.8415 16.6299 11.5359 17.6738 11.5359 17.6738L10.8394 16.5982C10.8394 16.5982 11.0298 17.6103 10.6808 18.3702C10.3334 19.1302 9.8891 20.8388 9.8891 20.8388C9.8891 20.8388 7.35712 17.642 10.2048 13.6871C8.11538 15.3322 7.42058 15.5543 7.03978 15.5861C6.65898 15.6178 6.31159 15.9652 6.31159 15.9652L6.72245 15.0783L4.06353 16.9139C4.06353 16.9139 4.09527 15.1735 6.02599 13.6854C7.95671 12.1973 10.457 12.3242 10.457 12.3242C10.457 12.3242 9.06404 11.4273 8.09366 11.4908C7.12329 11.5543 6.65898 11.576 6.65898 11.576L7.12329 11.1534C7.12329 11.1534 4.90864 10.6674 4.29569 10.6891C5.60343 9.42312 8.51455 9.42312 10.5822 10.5421C7.88155 8.22227 8.47279 6.27985 8.47279 6.27985C8.47279 6.27985 11.4474 7.75629 12.3543 10.7743C12.396 9.40308 12.5447 8.72833 12.5447 8.72833C12.5447 8.72833 12.7551 8.89702 12.7985 9.19264C13.2211 7.18843 14.6558 6.68237 14.6558 6.68237C14.6558 6.68237 14.1698 7.4423 13.8541 10.1847C15.2036 8.81351 16.4061 8.83522 16.4061 8.83522C16.4061 8.83522 15.6462 9.32124 15.414 9.93252C17.9878 8.5396 20.0555 9.5534 20.0555 9.5534C20.0555 9.5534 19.1268 9.93252 18.8947 10.1647C18.2834 9.91081 18.093 10.143 18.093 10.143L18.3252 10.3534C18.3252 10.3534 17.4817 10.649 17.3331 10.796C16.9322 10.4803 16.7218 10.5004 16.7218 10.5004L16.7635 10.9012C16.7635 10.9012 16.1523 11.2603 15.9201 11.5559C15.9201 11.5559 20.2024 10.6691 22.4605 13.9192C20.3928 13.7088 19.992 13.5184 19.4859 13.181C19.6763 13.6453 19.212 13.4349 18.7895 13.328C18.3669 13.2211 17.5869 12.9054 16.7635 13.1376C17.7339 13.2228 18.2617 13.475 18.2617 13.475C18.2617 13.475 17.8191 13.475 17.6704 13.7071C20.0755 14.2132 22.0797 17.146 22.1649 18.2433C20.2459 17.5468 19.6546 16.7034 19.6546 16.7034C19.6546 16.7034 19.6964 17.1043 19.7598 17.2512C18.579 16.7652 17.5869 15.3322 17.5869 15.3322L17.5018 16.0069C17.5018 16.0069 15.5827 14.2766 15.1385 14.2349C17.5018 17.2095 18.0295 19.192 17.9226 21.4283C17.9226 21.4283 15.3706 20.2475 15.3272 17.5051C14.7159 17.9276 14.589 18.3702 14.589 18.3702C14.589 18.3702 13.6186 16.2191 13.5969 15.1418C12.7234 19.1502 12.7902 28.0639 12.8119 29.7976C13.3581 29.6205 14.0211 29.502 14.8211 29.4903C13.5869 30.9333 13.4282 31.5963 13.4282 31.5963C13.4282 31.5963 14.457 31.3224 15.9602 31.2773C15.6495 31.6932 15.3489 32.1609 15.1034 32.6586C15.0149 32.6268 14.9213 32.6101 14.8245 32.6101C14.5923 32.6101 14.1564 32.7104 13.8574 33.3734C13.6771 33.7726 13.5451 34.3722 13.4533 34.9334C12.386 34.9618 11.0048 35.0436 9.89578 35.2724C10.1931 35.8236 10.5137 36.3614 10.8578 36.8825H15.3155C15.2086 35.9121 14.9932 34.0882 14.8579 34.0365C14.5455 33.9179 14.3318 36.4315 14.3318 36.4315H13.7739C13.7739 36.4315 13.9343 34.4189 14.3134 33.5805C14.6925 32.7404 15.3222 33.1062 15.5009 34.0665C15.6161 34.6862 15.7731 36.0173 15.87 36.8841H16.3877C16.3243 36.3079 16.2224 35.4294 16.1205 34.8014C16.1205 34.7964 16.1189 34.7897 16.1172 34.783C16.0738 34.4657 16.0303 34.1834 15.9919 33.9763C15.9335 33.6624 15.8316 33.3901 15.6963 33.1747C16.0437 32.9559 16.4379 33.3417 16.5715 34.0665C16.6867 34.6862 16.8454 36.0173 16.9422 36.8841H47.0572C47.2142 36.6453 47.3661 36.4048 47.5148 36.1593C46.9102 36.1877 46.3189 36.2177 45.8312 36.2511C43.964 36.3764 41.6224 36.5351 40.3564 36.3463C39.0904 36.1559 37.8879 36.0925 37.8879 36.0925L37.7292 36.4332H37.0662L37.3184 35.6966C37.3184 35.6966 35.4995 36.0925 32.9509 36.0925C30.4022 36.0925 24.5499 35.538 24.5499 35.538L24.423 35.0002L23.8852 35.0319L24.2175 36.0457L23.506 35.9973L23.0935 35.0486H22.1766L21.7807 36.0607L21.0692 35.9338L21.0525 35.6181L20.4045 35.538L20.2308 35.0002L18.9481 34.9534L18.427 35.8386L17.7139 35.8553L17.1961 34.8248C17.1493 34.4908 17.1043 34.1935 17.0642 33.9763C16.9289 33.2498 16.5598 32.7488 16.0955 32.6369L16.052 32.5484L16.5113 31.2824L17.4617 31.2356V27.77H14.8195L27.5195 16.1339L38.87 26.1349L39.0387 25.7975L39.9873 25.7123L39.3326 25.5654L27.6881 15.3322L42.2454 20.1423L44.9026 22.1465L50.4242 22.1048C49.0046 11.5242 39.9188 3.34035 28.9575 3.34035C23.8835 3.34035 19.212 5.09236 15.5176 8.02519C15.6712 7.46234 15.9919 6.24979 16.3026 5.39633C19.9486 3.03805 24.2927 1.67017 28.9575 1.67017C40.8558 1.67017 50.6764 10.5806 52.1078 22.0914C52.1345 22.3035 52.1562 22.5173 52.1762 22.7311C52.2481 23.4776 52.2865 24.2326 52.2865 24.9992C52.2865 26.9432 52.046 28.8322 51.5984 30.6393C51.4497 31.2406 51.276 31.8318 51.0823 32.4131C50.9854 32.702 50.8835 32.9893 50.775 33.2732C50.7098 33.4469 50.6414 33.6189 50.5712 33.791C50.4693 34.0415 50.3641 34.2887 50.2539 34.5342C50.1637 34.7346 50.0718 34.9317 49.9766 35.1288C49.8213 35.4494 49.6626 35.7668 49.4939 36.0791H49.5006Z" fill="white"/>
<path d="M40.6406 30.4072H40.8293C40.8343 30.2252 40.983 30.0799 41.1667 30.0799C41.1884 30.0799 41.2101 30.0799 41.2301 30.0866V29.1312H40.218V30.0916C40.2447 30.0832 40.2731 30.0799 40.3032 30.0799C40.4869 30.0799 40.6356 30.2252 40.6406 30.4072Z" fill="white"/>
<path d="M31.1456 33.0127H27.3694V33.4236H31.1456V33.0127Z" fill="white"/>
<path d="M30.1582 28.3812C29.6372 28.3812 29.2146 28.8038 29.2146 29.3249V32.0205H31.1036V29.3249C31.1036 28.8038 30.681 28.3812 30.1599 28.3812H30.1582Z" fill="white"/>
<path d="M27.3694 34.2887L31.1774 34.2569V33.8461L27.3694 33.8778V34.2887Z" fill="white"/>
<path d="M35.4693 28.3812H33.739V34.3521H35.4693V28.3812Z" fill="white"/>
<path d="M32.5583 34.3521H33.0744V28.3812H32.5583V34.3521Z" fill="white"/>
<path d="M25.8809 23.0333L25.7957 23.5193C25.7957 23.5193 20.6482 25.5236 18.4753 26.4939C18.4753 26.4939 21.2395 26.1148 26.0496 25.9662C30.8597 25.8175 33.5604 26.4939 33.5604 26.4939L26.0496 23.4976L25.8809 23.0333Z" fill="white"/>
</g>
<g clip-path="url(#clip1_6_485)">
<path d="M82.0328 33.5591C82.4911 33.5591 82.8647 33.9396 82.8647 34.4025C82.8647 34.8655 82.4894 35.246 82.0328 35.246H82.0138L82.7834 36.2578C82.9442 36.4752 83.1293 36.7067 83.4302 36.7716H82.8456C82.5447 36.7067 82.3597 36.4752 82.1937 36.2578L81.9844 35.9807L81.4241 35.246H81.2252V36.2578C81.2252 36.5594 81.3134 36.712 81.3515 36.7716H80.6355C80.6753 36.712 80.7617 36.5541 80.7566 36.249V34.0834C80.7617 33.7783 80.6735 33.6205 80.6355 33.5608H82.0328V33.5591ZM81.2252 33.7204V35.0829H81.7267C82.0968 35.0829 82.3977 34.776 82.3977 34.4025C82.3977 34.029 82.0951 33.7222 81.7267 33.7222H81.2252V33.7204Z" fill="white"/>
<path d="M85.5918 34.3377V36.1088C85.597 36.4051 85.68 36.5629 85.7181 36.6226L85.1439 36.7699V36.2911C85.0229 36.5822 84.7444 36.7699 84.4332 36.7699C83.9368 36.7699 83.5823 36.3701 83.5823 35.8773V34.8462C83.5823 34.5499 83.4941 34.3973 83.4561 34.3377H84.0302V35.7581C84.0302 36.6997 85.1439 36.6997 85.1439 35.8019V34.8445C85.1439 34.5481 85.0609 34.3956 85.0229 34.3359H85.5918V34.3377Z" fill="white"/>
<path d="M87.1138 34.4955C86.7195 34.5008 86.6226 34.8217 86.8319 35.0093C87.0013 35.1619 87.2556 35.2864 87.4787 35.4231C87.6153 35.5126 87.7363 35.6002 87.8245 35.7002C88.0632 35.972 88.058 36.3753 87.7311 36.598C87.5703 36.7067 87.3524 36.7699 87.0792 36.7699C86.7731 36.7699 86.3494 36.691 86.1833 36.5472L86.4324 35.9702C86.5154 36.2175 86.6416 36.6015 87.0844 36.612C87.2538 36.6173 87.4199 36.5437 87.4925 36.3893C87.6291 36.0877 87.3611 35.9264 87.0844 35.7581C86.8647 35.6248 86.6226 35.4915 86.4618 35.3232C86.1799 35.0374 86.1885 34.6183 86.6278 34.4201C86.7437 34.3657 86.9529 34.3359 87.1103 34.3359C87.2314 34.3359 87.5046 34.3798 87.6308 34.3763C87.6948 34.371 87.7433 34.3657 87.7865 34.3359V34.9427C87.6931 34.7007 87.4994 34.4885 87.1155 34.4938L87.1138 34.4955Z" fill="white"/>
<path d="M88.2881 34.4761V34.3323C88.5855 34.3376 88.921 34.1009 88.921 33.6765H89.0905V34.3323H89.4987V34.4761H89.0905V35.9859C89.0905 36.1543 89.0957 36.3858 89.1977 36.5243C89.2911 36.6576 89.5281 36.633 89.6266 36.5295V36.5892C89.5869 36.6576 89.4658 36.7715 89.3102 36.7715C88.838 36.7715 88.6443 36.3963 88.6443 35.9526V34.4779H88.2898L88.2881 34.4761Z" fill="white"/>
<path d="M90.5864 36.2578C90.5864 36.5594 90.6694 36.712 90.7074 36.7716H90.0122C90.052 36.712 90.1333 36.5594 90.1385 36.2578V35.0005C90.1333 34.7042 90.0503 34.5516 90.0122 34.4867L90.5864 34.3394V36.2596V36.2578ZM90.6452 33.5591C90.6452 33.6871 90.5189 33.7853 90.3633 33.7853C90.2076 33.7853 90.0814 33.6871 90.0814 33.5591C90.0814 33.4311 90.2076 33.3329 90.3633 33.3329C90.5189 33.3329 90.6452 33.4363 90.6452 33.5591Z" fill="white"/>
<path d="M92.3779 34.5148C91.9058 34.5446 91.6827 35.0373 91.6724 35.5318C91.6672 36.0351 91.8868 36.5384 92.4022 36.5489C92.9383 36.5541 93.1717 36.2683 93.2582 35.8089L93.298 36.3858C93.0991 36.6576 92.6858 36.7698 92.3693 36.7698C92.2811 36.7698 92.1549 36.7593 92.0718 36.7348C91.5651 36.612 91.176 36.128 91.176 35.5564C91.176 34.8848 91.7018 34.3376 92.3295 34.3376C92.5872 34.3376 92.9763 34.3727 93.2253 34.4955V35.1618C93.0749 34.7866 92.8068 34.4902 92.3779 34.5148Z" fill="white"/>
<path d="M97.4484 33.5591V34.2009C97.4484 34.2903 97.4432 33.7362 96.9867 33.7222H95.9542V35.0058H96.6702C96.9279 34.9952 97.132 34.7796 97.132 34.5218V35.6511C97.132 35.3951 96.9279 35.1776 96.6702 35.1671H95.9542L95.9404 36.6085H96.6564C97.0853 36.6085 97.4502 36.3472 97.6058 35.9667L97.4502 36.7716H95.3628C95.4026 36.712 95.489 36.5541 95.4838 36.249V34.0834C95.489 33.7783 95.4008 33.6205 95.3628 33.5608H97.4502L97.4484 33.5591Z" fill="white"/>
<path d="M98.5917 36.2577C98.5917 36.5593 98.6799 36.7119 98.718 36.7715H98.0176C98.0608 36.7119 98.1438 36.5593 98.1438 36.2577V33.9921C98.1438 33.6958 98.0608 33.5432 98.0176 33.4836L98.5917 33.3311V36.2577Z" fill="white"/>
<path d="M99.6726 35.6598C99.7453 36.0982 99.9943 36.4735 100.461 36.5033C100.733 36.5331 100.939 36.4542 101.143 36.2806V36.3893C101.049 36.5419 100.665 36.7295 100.447 36.7593C100.404 36.7646 100.359 36.7698 100.316 36.7698C99.6242 36.7698 99.1729 36.1929 99.1729 35.5213C99.1729 35.0969 99.3717 34.6884 99.7418 34.4762C99.8975 34.3867 100.069 34.3376 100.249 34.3376C100.871 34.3376 101.319 34.8164 101.314 35.3985C101.314 35.488 101.303 35.5704 101.284 35.6598H99.6744H99.6726ZM100.797 35.4722C100.84 35.1267 100.69 34.5253 100.257 34.5095C99.8145 34.4902 99.6294 35.1022 99.6536 35.4722H100.797Z" fill="white"/>
<path d="M103.406 34.506C103.406 34.506 103.417 34.5165 103.42 34.5165C103.479 34.399 103.552 34.264 103.648 34.1167L103.955 34.5305C103.809 34.5305 103.692 34.5849 103.595 34.6638C103.668 34.7427 103.726 34.8321 103.764 34.9356C103.794 35.0198 103.813 35.1075 103.813 35.2021C103.813 35.2968 103.794 35.3845 103.764 35.4687C103.692 35.6563 103.56 35.8001 103.405 35.8983C103.225 36.0123 103.016 36.0666 102.811 36.0666C102.651 36.0666 102.486 36.0316 102.334 35.9632C102.004 36.1894 102.154 36.3227 102.49 36.3227H102.986C103.702 36.3332 103.955 36.6436 103.955 36.989C103.96 37.4081 103.56 37.729 102.957 37.729C102.699 37.729 102.348 37.7343 102.101 37.6396C101.653 37.4765 101.565 37.1802 101.779 36.9136C101.667 37.2591 102.581 37.2731 102.761 37.2731C102.893 37.2731 103.088 37.2591 103.228 37.238C103.974 37.1538 103.923 36.7646 103.169 36.7698C102.931 36.7698 102.659 36.7751 102.445 36.7751C101.696 36.7751 101.578 36.1526 102.196 35.8825C102.051 35.7843 101.923 35.6458 101.86 35.4687C101.826 35.3845 101.812 35.2968 101.812 35.2021C101.812 35.1075 101.826 35.0198 101.86 34.9356C101.928 34.748 102.064 34.6059 102.215 34.506C102.395 34.392 102.604 34.3376 102.81 34.3376C103.016 34.3376 103.223 34.392 103.403 34.506H103.406ZM102.395 35.6511C102.473 35.7685 102.585 35.8527 102.716 35.8825C102.746 35.8878 102.78 35.893 102.813 35.893C102.846 35.893 102.881 35.8878 102.915 35.8825C103.041 35.8527 103.154 35.7685 103.237 35.6511C103.325 35.523 103.368 35.3652 103.368 35.2021C103.368 35.0391 103.325 34.8812 103.237 34.7532C103.154 34.6357 103.041 34.5516 102.915 34.5218C102.881 34.5165 102.848 34.5112 102.813 34.5112C102.779 34.5112 102.746 34.5165 102.716 34.5218C102.585 34.5516 102.473 34.6357 102.395 34.7532C102.306 34.8812 102.258 35.0391 102.258 35.2021C102.258 35.3652 102.306 35.523 102.395 35.6511Z" fill="white"/>
<path d="M105.789 36.4051C105.58 36.6611 105.376 36.7699 105.006 36.7699C104.276 36.7699 103.979 35.9369 104.811 35.5406C105.108 35.4021 105.473 35.3337 105.789 35.2986C105.789 35.1601 105.779 35.0268 105.741 34.8848C105.668 34.6183 105.502 34.5201 105.336 34.5201C105.009 34.5201 104.835 34.8655 104.83 35.1566L104.459 34.8006C104.644 34.485 104.985 34.3359 105.331 34.3359C105.929 34.3359 106.236 34.7007 106.236 35.3039V36.114C106.241 36.4157 106.324 36.5682 106.362 36.6278L105.788 36.7751V36.4051H105.789ZM105.789 35.488C105.507 35.4933 104.968 35.5915 104.786 35.858C104.591 36.1544 104.821 36.5138 105.269 36.5138C105.551 36.5138 105.789 36.2911 105.789 35.9755V35.4863V35.488Z" fill="white"/>
<path d="M106.851 36.7698C106.895 36.7102 106.978 36.5576 106.978 36.256V34.9934C106.978 34.8795 106.964 34.7865 106.948 34.7129C106.919 34.5954 106.876 34.52 106.851 34.4867L107.425 34.3394V34.8181C107.547 34.527 107.83 34.3394 108.141 34.3394C108.638 34.3394 108.992 34.7339 108.992 35.2319V36.2577C108.992 36.5594 109.075 36.7119 109.113 36.7715H108.418C108.458 36.7119 108.539 36.5594 108.544 36.2577V35.3441C108.544 34.4007 107.425 34.4007 107.425 35.3038V36.256C107.425 36.5576 107.514 36.7102 107.552 36.7698H106.851Z" fill="white"/>
<path d="M110.768 34.5148C110.296 34.5446 110.073 35.0373 110.063 35.5318C110.058 36.0351 110.277 36.5384 110.793 36.5489C111.329 36.5541 111.562 36.2683 111.649 35.8089L111.688 36.3858C111.489 36.6576 111.076 36.7698 110.76 36.7698C110.671 36.7698 110.545 36.7593 110.462 36.7348C109.956 36.612 109.566 36.128 109.566 35.5564C109.566 34.8848 110.092 34.3376 110.72 34.3376C110.978 34.3376 111.367 34.3727 111.616 34.4955V35.1618C111.465 34.7866 111.197 34.4902 110.768 34.5148Z" fill="white"/>
<path d="M112.683 35.6598C112.755 36.0982 113.004 36.4735 113.471 36.5033C113.743 36.5331 113.949 36.4542 114.153 36.2806V36.3893C114.059 36.5419 113.675 36.7295 113.457 36.7593C113.414 36.7646 113.369 36.7698 113.326 36.7698C112.634 36.7698 112.183 36.1929 112.183 35.5213C112.183 35.0969 112.382 34.6884 112.752 34.4762C112.907 34.3867 113.079 34.3376 113.259 34.3376C113.881 34.3376 114.329 34.8164 114.324 35.3985C114.324 35.488 114.313 35.5704 114.294 35.6598H112.684H112.683ZM113.807 35.4722C113.85 35.1267 113.7 34.5253 113.267 34.5095C112.824 34.4902 112.639 35.1022 112.664 35.4722H113.807Z" fill="white"/>
<path d="M114.967 36.3174C115.069 36.3174 115.152 36.356 115.206 36.4156C115.273 36.4998 115.273 36.6471 115.246 36.7803C115.197 37.0223 115.061 37.2187 114.803 37.259C114.934 37.1801 115.052 37.0223 114.972 36.8698C114.948 36.8154 114.895 36.7716 114.831 36.7417C114.742 36.7014 114.685 36.6278 114.685 36.5436C114.685 36.4156 114.812 36.3174 114.967 36.3174Z" fill="white"/>
<path d="M118.592 33.5591C119.05 33.5591 119.424 33.9396 119.424 34.4025C119.424 34.8655 119.048 35.246 118.592 35.246H118.573L119.342 36.2578C119.503 36.4752 119.688 36.7067 119.989 36.7716H119.405C119.104 36.7067 118.919 36.4752 118.753 36.2578L118.544 35.9807L117.983 35.246H117.784V36.2578C117.784 36.5594 117.873 36.712 117.911 36.7716H117.195C117.234 36.712 117.321 36.5541 117.316 36.249V34.0834C117.321 33.7783 117.233 33.6205 117.195 33.5608H118.592V33.5591ZM117.784 33.7204V35.0829H118.286C118.656 35.0829 118.957 34.776 118.957 34.4025C118.957 34.029 118.654 33.7222 118.286 33.7222H117.784V33.7204Z" fill="white"/>
<path d="M122.378 35.5564C122.378 36.228 121.838 36.7698 121.176 36.7698C120.513 36.7698 119.979 36.2262 119.979 35.5564C119.979 34.8865 120.513 34.3376 121.176 34.3376C121.838 34.3376 122.378 34.8848 122.378 35.5564ZM120.615 36.2175C120.712 36.3753 120.859 36.5138 121.044 36.5629C121.088 36.5769 121.132 36.5822 121.176 36.5822C121.224 36.5822 121.269 36.5769 121.312 36.5629C121.497 36.5138 121.643 36.3753 121.736 36.2175C121.857 36.0211 121.911 35.7826 121.911 35.5564C121.911 35.3302 121.857 35.0882 121.736 34.89C121.644 34.7322 121.497 34.5937 121.312 34.5446C121.269 34.5305 121.224 34.5253 121.176 34.5253C121.132 34.5253 121.088 34.5305 121.044 34.5446C120.859 34.5937 120.714 34.7322 120.615 34.89C120.5 35.0864 120.446 35.3249 120.446 35.5564C120.446 35.7878 120.5 36.0211 120.615 36.2175Z" fill="white"/>
<path d="M125.224 35.5564C125.224 36.228 124.685 36.7698 124.022 36.7698C123.36 36.7698 122.825 36.2262 122.825 35.5564C122.825 34.8865 123.36 34.3376 124.022 34.3376C124.685 34.3376 125.224 34.8848 125.224 35.5564ZM123.462 36.2175C123.559 36.3753 123.706 36.5138 123.891 36.5629C123.934 36.5769 123.979 36.5822 124.022 36.5822C124.071 36.5822 124.116 36.5769 124.159 36.5629C124.344 36.5138 124.489 36.3753 124.582 36.2175C124.704 36.0211 124.757 35.7826 124.757 35.5564C124.757 35.3302 124.704 35.0882 124.582 34.89C124.489 34.7322 124.344 34.5937 124.159 34.5446C124.116 34.5305 124.071 34.5253 124.022 34.5253C123.979 34.5253 123.934 34.5305 123.891 34.5446C123.706 34.5937 123.56 34.7322 123.462 34.89C123.346 35.0864 123.292 35.3249 123.292 35.5564C123.292 35.7878 123.346 36.0211 123.462 36.2175Z" fill="white"/>
<path d="M125.485 34.4761V34.3323C125.783 34.3376 126.118 34.1009 126.118 33.6765H126.29V34.3323H126.698V34.4761H126.29V35.9859C126.29 36.1543 126.295 36.3858 126.397 36.5243C126.49 36.6576 126.727 36.633 126.826 36.5295V36.5892C126.786 36.6576 126.665 36.7715 126.509 36.7715C126.037 36.7715 125.843 36.3963 125.843 35.9526V34.4779H125.489L125.485 34.4761Z" fill="white"/>
<path d="M127.554 35.6598C127.626 36.0982 127.875 36.4735 128.342 36.5033C128.616 36.5331 128.82 36.4542 129.024 36.2806V36.3893C128.93 36.5419 128.546 36.7295 128.329 36.7593C128.285 36.7646 128.24 36.7698 128.197 36.7698C127.505 36.7698 127.054 36.1929 127.054 35.5213C127.054 35.0969 127.253 34.6884 127.623 34.4762C127.779 34.3867 127.95 34.3376 128.13 34.3376C128.752 34.3376 129.2 34.8164 129.195 35.3985C129.195 35.488 129.185 35.5704 129.166 35.6598H127.554ZM128.678 35.4722C128.721 35.1267 128.571 34.5253 128.138 34.5095C127.696 34.4902 127.511 35.1022 127.535 35.4722H128.678Z" fill="white"/>
<path d="M131.912 33.3311V36.1087C131.912 36.405 132 36.5629 132.038 36.6225L131.464 36.7698V36.405C131.332 36.6172 131.002 36.7698 130.67 36.7698C130.047 36.7698 129.648 36.2174 129.648 35.5896C129.648 35.0969 129.868 34.6322 130.335 34.4358C130.49 34.3709 130.632 34.3376 130.767 34.3376C131.025 34.3376 131.287 34.427 131.462 34.6778V33.9921C131.462 33.6958 131.374 33.5432 131.336 33.4836L131.91 33.3311H131.912ZM131.464 35.9421V35.2705C131.464 34.8461 131.163 34.5112 130.758 34.5112C130.276 34.5112 130.092 34.9899 130.092 35.395C130.092 35.8983 130.326 36.4699 130.9 36.4699C131.216 36.4699 131.464 36.277 131.464 35.9421Z" fill="white"/>
<path d="M134.632 36.2578C134.632 36.5594 134.715 36.712 134.753 36.7716H134.058C134.096 36.712 134.179 36.5594 134.184 36.2578V35.0005C134.179 34.7042 134.096 34.5516 134.058 34.4867L134.632 34.3394V36.2596V36.2578ZM134.689 33.5591C134.689 33.6871 134.563 33.7853 134.407 33.7853C134.252 33.7853 134.125 33.6871 134.125 33.5591C134.125 33.4311 134.252 33.3329 134.407 33.3329C134.563 33.3329 134.689 33.4363 134.689 33.5591Z" fill="white"/>
<path d="M135.256 36.7698C135.3 36.7102 135.383 36.5576 135.383 36.256V34.9934C135.383 34.8795 135.369 34.7865 135.353 34.7129C135.324 34.5954 135.281 34.52 135.256 34.4867L135.831 34.3394V34.8181C135.952 34.527 136.235 34.3394 136.546 34.3394C137.043 34.3394 137.397 34.7339 137.397 35.2319V36.2577C137.397 36.5594 137.48 36.7119 137.518 36.7715H136.823C136.863 36.7119 136.944 36.5594 136.949 36.2577V35.3441C136.949 34.4007 135.831 34.4007 135.831 35.3038V36.256C135.831 36.5576 135.919 36.7102 135.957 36.7698H135.256Z" fill="white"/>
<path d="M139.388 34.4761V34.3323C139.685 34.3376 140.021 34.1009 140.021 33.6765H140.192V34.3323H140.6V34.4761H140.192V35.9859C140.192 36.1543 140.197 36.3858 140.299 36.5243C140.393 36.6576 140.63 36.633 140.728 36.5295V36.5892C140.688 36.6576 140.567 36.7715 140.412 36.7715C139.94 36.7715 139.746 36.3963 139.746 35.9526V34.4779H139.391L139.388 34.4761Z" fill="white"/>
<path d="M141.107 36.7698C141.147 36.7102 141.228 36.5576 141.233 36.256V33.9904C141.228 33.6941 141.145 33.5415 141.107 33.4819L141.681 33.3293V34.8146C141.802 34.5235 142.086 34.3359 142.392 34.3359C142.888 34.3359 143.243 34.7304 143.243 35.2284V36.2543C143.243 36.5559 143.331 36.7084 143.369 36.7681H142.669C142.712 36.7084 142.795 36.5559 142.795 36.2543V35.3407C142.795 34.3973 141.681 34.3973 141.681 35.3003V36.2525C141.681 36.5541 141.764 36.7067 141.802 36.7663H141.107V36.7698Z" fill="white"/>
<path d="M144.329 35.6598C144.401 36.0982 144.65 36.4735 145.117 36.5033C145.39 36.5331 145.595 36.4542 145.799 36.2806V36.3893C145.705 36.5419 145.321 36.7295 145.103 36.7593C145.06 36.7646 145.015 36.7698 144.972 36.7698C144.28 36.7698 143.829 36.1929 143.829 35.5213C143.829 35.0969 144.028 34.6884 144.398 34.4762C144.553 34.3867 144.725 34.3376 144.905 34.3376C145.527 34.3376 145.975 34.8164 145.97 35.3985C145.97 35.488 145.959 35.5704 145.94 35.6598H144.329ZM145.453 35.4722C145.496 35.1267 145.346 34.5253 144.913 34.5095C144.47 34.4902 144.285 35.1022 144.31 35.4722H145.453Z" fill="white"/>
<path d="M148.706 33.5591C148.662 33.6187 148.579 33.7713 148.579 34.0729L148.569 36.605H149.401C149.79 36.5752 150.117 36.3192 150.262 35.9685L150.101 36.7733H147.99C148.03 36.7137 148.116 36.5559 148.111 36.2508V34.0851C148.116 33.78 148.028 33.6222 147.99 33.5626H148.706V33.5591Z" fill="white"/>
<path d="M152.059 36.4051C151.85 36.6611 151.646 36.7699 151.275 36.7699C150.546 36.7699 150.248 35.9369 151.08 35.5406C151.377 35.4021 151.742 35.3337 152.059 35.2986C152.059 35.1601 152.048 35.0268 152.01 34.8848C151.938 34.6183 151.772 34.5201 151.606 34.5201C151.281 34.5201 151.104 34.8655 151.099 35.1566L150.729 34.8006C150.914 34.485 151.255 34.3359 151.601 34.3359C152.199 34.3359 152.505 34.7007 152.505 35.3039V36.114C152.51 36.4157 152.593 36.5682 152.631 36.6278L152.057 36.7751V36.4051H152.059ZM152.059 35.488C151.777 35.4933 151.237 35.5915 151.056 35.858C150.86 36.1544 151.09 36.5138 151.538 36.5138C151.82 36.5138 152.059 36.2911 152.059 35.9755V35.4863V35.488Z" fill="white"/>
<path d="M153.121 36.7698C153.164 36.7102 153.247 36.5576 153.247 36.256V34.9934C153.247 34.8795 153.233 34.7865 153.218 34.7129C153.188 34.5954 153.145 34.52 153.121 34.4867L153.695 34.3394V34.8181C153.816 34.527 154.1 34.3394 154.411 34.3394C154.907 34.3394 155.262 34.7339 155.262 35.2319V36.2577C155.262 36.5594 155.345 36.7119 155.383 36.7715H154.688C154.727 36.7119 154.809 36.5594 154.814 36.2577V35.3441C154.814 34.4007 153.695 34.4007 153.695 35.3038V36.256C153.695 36.5576 153.783 36.7102 153.821 36.7698H153.121Z" fill="white"/>
<path d="M158.108 33.3311V36.1087C158.108 36.405 158.197 36.5629 158.235 36.6225L157.661 36.7698V36.405C157.529 36.6172 157.199 36.7698 156.867 36.7698C156.244 36.7698 155.845 36.2174 155.845 35.5896C155.845 35.0969 156.064 34.6322 156.531 34.4358C156.687 34.3709 156.829 34.3376 156.964 34.3376C157.221 34.3376 157.484 34.427 157.659 34.6778V33.9921C157.659 33.6958 157.571 33.5432 157.533 33.4836L158.107 33.3311H158.108ZM157.661 35.9421V35.2705C157.661 34.8461 157.36 34.5112 156.955 34.5112C156.472 34.5112 156.289 34.9899 156.289 35.395C156.289 35.8983 156.523 36.4699 157.097 36.4699C157.413 36.4699 157.661 36.277 157.661 35.9421Z" fill="white"/>
<path d="M76.8896 35.225H66.4648V35.4003H76.8896V35.225Z" fill="white"/>
<path d="M172.374 35.225H161.949V35.4003H172.374V35.225Z" fill="white"/>
<path d="M69.621 27.6707V14.1754C69.621 13.7475 69.538 13.3564 69.372 12.9987C69.2059 12.6427 68.995 12.399 68.739 12.271H78.529L78.9925 13.5862C78.83 13.3003 78.5567 13.0618 78.1745 12.869C77.7923 12.6761 77.3634 12.5796 76.8931 12.5796H71.4057V19.2957H76.1615L76.6146 20.6109C76.4607 20.318 76.1909 20.0778 75.8087 19.8884C75.4265 19.699 74.9994 19.6043 74.5273 19.6043H71.4075V25.7628C71.4075 26.1907 71.4922 26.5835 71.6634 26.9395C71.8329 27.2954 72.0456 27.5392 72.3015 27.6672H69.6227L69.621 27.6707Z" fill="white"/>
<path d="M101.467 27.6707H99.4026L94.8786 20.646H92.5698V25.7681C92.5698 26.1959 92.6546 26.587 92.8258 26.9395C92.9953 27.2919 93.208 27.5357 93.4639 27.6724H90.7851V20.6477H90.2853C88.7773 20.6477 87.2295 20.7371 85.6402 20.9143C84.0509 21.0931 82.5965 21.5297 81.2787 22.2242C79.9592 22.9186 78.9959 24.018 78.3837 25.5226C78.2748 25.7944 78.1935 26.0294 78.1399 26.2293C78.0862 26.4292 78.0586 26.6361 78.0586 26.85C78.0586 27.2639 78.19 27.5374 78.4529 27.6742H77.2112L78.069 25.4279C78.6414 24.0093 79.513 22.9361 80.6855 22.2101C81.858 21.4824 83.2277 20.9914 84.798 20.7336L82.5135 14.7453L79.4386 22.7748C79.2294 22.9747 79.0288 23.1921 78.8351 23.4271L82.3267 14.2841L81.5606 12.2745H83.4508L86.5948 20.4969C87.9091 20.3899 89.2235 20.3373 90.5395 20.3373H96.5837C97.3498 20.3373 98.0001 19.9603 98.5379 19.2045C99.0758 18.4488 99.3438 17.5369 99.3438 16.4672C99.3438 15.3976 99.0758 14.4752 98.5379 13.7194C98.0001 12.9636 97.3498 12.5866 96.5837 12.5866H92.5698V20.0392H90.7834V14.1754C90.7834 13.7475 90.7004 13.3582 90.5343 13.004C90.3683 12.6498 90.1539 12.4078 89.891 12.271H96.5837C97.4259 12.271 98.1903 12.4604 98.8752 12.8374C99.56 13.2162 100.106 13.7194 100.516 14.3507C100.926 14.982 101.132 15.6852 101.132 16.462C101.132 17.1967 100.947 17.8701 100.575 18.4821C100.203 19.0958 99.7035 19.5903 99.0723 19.9691C98.4411 20.3479 97.732 20.5688 96.9434 20.6319L101.467 27.6672V27.6707ZM89.3342 27.6707L86.8283 21.0949C86.2178 21.144 85.6177 21.2194 85.0297 21.3193L87.4543 27.6707H89.3342Z" fill="white"/>
<path d="M116.193 27.6706V14.4331L111.125 24.5493L111.716 25.768H109.767L104.141 14.1437V25.7663C104.141 26.1941 104.224 26.5869 104.39 26.9429C104.556 27.2989 104.767 27.5426 105.022 27.6706H103.804V13.4493L103.235 12.2727H105.172L110.938 24.1741L116.193 13.6948V12.2727H117.98V25.768C117.98 26.1959 118.065 26.5887 118.236 26.9447C118.405 27.3006 118.618 27.5444 118.874 27.6724H116.195L116.193 27.6706Z" fill="white"/>
<path d="M121.523 27.6707V14.1754C121.523 13.7475 121.44 13.3564 121.274 12.9987C121.108 12.6427 120.897 12.399 120.641 12.271H123.31V25.7663C123.31 26.1942 123.395 26.587 123.566 26.943C123.735 27.2989 123.948 27.5427 124.204 27.6707H121.525H121.523Z" fill="white"/>
<path d="M136.387 27.6707L126.876 13.609V25.7663C126.876 26.1942 126.96 26.587 127.132 26.943C127.301 27.2989 127.514 27.5427 127.77 27.6707H126.54V13.118L125.971 12.2727H128.059L136.387 24.5704V14.1754C136.387 13.7475 136.303 13.3564 136.131 12.9987C135.962 12.6427 135.749 12.399 135.493 12.271H136.723V27.6689H136.386L136.387 27.6707Z" fill="white"/>
<path d="M140.244 27.6707V14.1754C140.244 13.7475 140.161 13.3564 139.995 12.9987C139.829 12.6427 139.618 12.399 139.362 12.271H142.03V25.7663C142.03 26.1942 142.115 26.587 142.286 26.943C142.456 27.2989 142.668 27.5427 142.924 27.6707H140.246H140.244Z" fill="white"/>
<path d="M150.131 27.6707V12.5832H146.789C146.317 12.5832 145.89 12.6796 145.508 12.8725C145.126 13.0654 144.853 13.3039 144.69 13.5897L145.153 12.2745H156.892L157.346 13.5897C157.19 13.3039 156.92 13.0654 156.533 12.8725C156.145 12.6796 155.72 12.5832 155.256 12.5832H151.915V25.7681C151.915 26.196 151.998 26.5888 152.164 26.9447C152.33 27.3007 152.541 27.5445 152.796 27.6725H150.127L150.131 27.6707Z" fill="white"/>
<path d="M163.535 27.6707V19.6517L159.115 12.2727H161.157L165.136 18.924L168.408 14.1754C168.849 13.5336 169.069 13.0426 169.069 12.6989C169.069 12.506 168.988 12.3639 168.825 12.271H170.102L165.322 19.2326V25.7663C165.322 26.1942 165.406 26.587 165.577 26.943C165.747 27.2989 165.96 27.5427 166.216 27.6707H163.537H163.535Z" fill="white"/>
</g>
<defs>
<clipPath id="clip0_6_485">
<rect width="53.965" height="50" fill="white"/>
</clipPath>
<clipPath id="clip1_6_485">
<rect width="105.909" height="25.4545" fill="white" transform="translate(66.4648 12.2727)"/>
</clipPath>
</defs>
</svg>
