<svg width="112" height="112" viewBox="0 0 112 112" fill="none" xmlns="http://www.w3.org/2000/svg">
<path d="M55.9999 102.667C81.7732 102.667 102.667 81.7733 102.667 56C102.667 30.2268 81.7732 9.33337 55.9999 9.33337C30.2266 9.33337 9.33325 30.2268 9.33325 56C9.33325 81.7733 30.2266 102.667 55.9999 102.667Z" stroke="white" stroke-width="4" stroke-linecap="round" stroke-linejoin="round"/>
<path d="M44.3333 41.8383C44.3333 39.6109 44.3333 38.4973 44.7987 37.8755C45.2043 37.3337 45.8252 36.9947 46.5004 36.9465C47.275 36.8912 48.2118 37.4934 50.0854 38.6979L72.1149 52.8596C73.7407 53.9048 74.5536 54.4274 74.8343 55.0919C75.0797 55.6725 75.0797 56.3276 74.8343 56.9082C74.5536 57.5727 73.7407 58.0953 72.1149 59.1404L50.0854 73.3022C48.2118 74.5067 47.275 75.1089 46.5004 75.0536C45.8252 75.0053 45.2043 74.6664 44.7987 74.1245C44.3333 73.5028 44.3333 72.3892 44.3333 70.1618V41.8383Z" stroke="white" stroke-width="4" stroke-linecap="round" stroke-linejoin="round"/>
</svg>
