<svg width="488" height="324" viewBox="0 0 488 324" fill="none" xmlns="http://www.w3.org/2000/svg">
<mask id="mask0_32_310" style="mask-type:alpha" maskUnits="userSpaceOnUse" x="0" y="0" width="488" height="324">
<rect width="488" height="324" fill="#D9D9D9"/>
</mask>
<g mask="url(#mask0_32_310)">
<g opacity="0.1">
<g clip-path="url(#clip0_32_310)">
<path d="M183.377 292.225H156.223L167.064 310.386L228.208 313.174V310.21L190.506 306.587L183.377 292.225Z" fill="white"/>
<path d="M219.979 278.142H207.187V293.237H219.979V278.142Z" fill="white"/>
<path d="M167.62 255.873V264.044L174.221 255.873H167.62Z" fill="white"/>
<path d="M233.037 263.883C228.225 263.604 224.514 263.516 224.514 263.516V275.56H235.824C235.824 275.56 235.267 252.587 234.621 251.663C234.621 251.663 232.582 257.868 233.052 263.897L233.037 263.883Z" fill="white"/>
<path d="M224.514 293.252H235.81V278.523L224.514 278.142V293.252Z" fill="white"/>
<path d="M219.979 263.516H207.187V275.56H219.979V263.516Z" fill="white"/>
<path d="M187.351 255.873H181.497L167.62 273.697V286.21H187.351V255.873Z" fill="white"/>
<path d="M255.155 217.98V208.313H243.478C243.859 210.543 244.769 212.611 246.06 214.357L255.155 217.98Z" fill="white"/>
<path d="M260.026 191.765V203.443H271.703C270.676 197.487 265.982 192.792 260.026 191.765Z" fill="white"/>
<path d="M255.155 191.765C249.199 192.792 244.505 197.487 243.478 203.443H255.155V191.765Z" fill="white"/>
<path d="M271.703 208.313H260.026V219.932L260.129 219.976C266.041 218.905 270.676 214.24 271.703 208.313Z" fill="white"/>
<path d="M450.663 251.105C450.692 250.797 450.736 250.489 450.751 250.181C443.386 248.523 428.834 245.927 406.477 244.709C371.636 226.166 360.34 220.254 345.699 214.313C345.699 214.313 380.159 240.44 402.222 250.078C423.611 249.301 441.773 250.401 450.663 251.12V251.105Z" fill="white"/>
<path d="M244.903 263.604H241.191V293.252H244.903V263.604Z" fill="white"/>
<path d="M407.87 321.888H413.151V302.89L407.87 317.619V321.888Z" fill="white"/>
<path d="M413.386 255.873H408.105V294.822H390.677L381.098 313.174L373.044 313.364L383.782 294.822H361.542L351.948 313.174L341.063 313.423V261.286H325.865V313.731H328.139H328.051V317.619H397.543L406.99 298.166H410.98L416.071 298.122L413.386 297.051V255.873Z" fill="white"/>
<path d="M443.445 266.758C443.445 263.736 440.995 261.286 437.973 261.286C434.951 261.286 432.501 263.736 432.501 266.758V291.403H442.008C442.492 289.922 442.976 288.44 443.431 286.944V266.758H443.445Z" fill="white"/>
<path d="M261.406 12C209.401 12 161.562 30.176 123.89 60.5134C123.89 60.5134 123.88 60.5232 123.861 60.5428C121.792 61.9364 119.474 63.7702 117.156 66.1614C117.127 66.176 117.112 66.2054 117.112 66.22C116.394 66.8215 115.675 67.467 114.971 68.0978L107.944 62.4499L106.844 67.467C97.3227 58.7677 88.6528 54.3814 87.978 54.044L72.4572 46.3423L67.4254 62.9046C66.9853 64.3423 64.9609 72 67.8509 82.7971C54.1491 83.3398 42.4132 87.7555 34.5648 95.3692L7 121.892L35.7824 120.895L25.5575 130.196L41.5037 129.462C28.7848 143.971 28.0954 158.406 28.0513 160.313L27.5379 188.89L49.5721 173.663C44.5257 192.117 41.8264 211.54 41.8264 231.579C41.8264 352.665 140.335 451.174 261.406 451.174C382.477 451.174 481 352.665 481 231.579C481 110.494 382.491 12 261.406 12ZM441.787 328.9C440.496 331.291 439.161 333.638 437.782 335.971C434.804 340.988 431.621 345.873 428.232 350.611C391.073 402.601 330.208 436.504 261.421 436.504C227.988 436.504 196.433 428.494 168.545 414.308C133.836 396.631 104.834 369.345 85.0293 335.971C83.2103 332.919 81.4792 329.809 79.8362 326.655C78.5452 324.22 77.313 321.755 76.154 319.247C63.5379 292.665 56.4963 262.944 56.4963 231.579C56.4963 206.171 61.1174 181.848 69.5672 159.389L69.7286 159.491L69.6113 159.609C69.802 159.433 70.0954 159.213 70.3154 159.081C71.7824 158.905 73.3521 158.582 75.1418 157.995C73.8215 167.721 74.9511 176.626 77.1663 184.078C73.2494 199.262 71.1663 215.178 71.1663 231.579C71.1663 247.98 73.3227 264.44 77.3863 279.873C79.7775 270.367 84.1785 260.421 91.9242 251.648C102.648 272.699 98.379 290.905 98.0562 292.166C98.291 291.477 100.33 285.858 106.756 280.592C107.768 253.804 111.024 183.565 118.33 142.782C111.01 158.068 108.325 167.237 108.325 167.237L102.208 157.79C102.208 157.79 103.88 166.68 100.814 173.355C97.7628 180.029 93.8606 195.037 93.8606 195.037C93.8606 195.037 71.621 166.958 96.6333 132.22C78.2812 146.67 72.1785 148.621 68.8337 148.9C65.489 149.178 62.4377 152.23 62.4377 152.23L66.0465 144.44L42.6919 160.562C42.6919 160.562 42.9707 145.276 59.9291 132.205C76.8875 119.134 98.8484 120.249 98.8484 120.249C98.8484 120.249 86.6137 112.372 78.0905 112.929C69.5672 113.487 65.489 113.677 65.489 113.677L69.5672 109.966C69.5672 109.966 50.1149 105.697 44.7311 105.888C56.2176 94.7677 81.7873 94.7677 99.9487 104.597C76.2274 84.22 81.4205 67.1589 81.4205 67.1589C81.4205 67.1589 107.548 80.1271 115.513 106.636C115.88 94.5917 117.186 88.665 117.186 88.665C117.186 88.665 119.034 90.1467 119.416 92.7433C123.127 75.1394 135.729 70.6944 135.729 70.6944C135.729 70.6944 131.46 77.3692 128.687 101.457C140.54 89.4132 151.103 89.6039 151.103 89.6039C151.103 89.6039 144.428 93.8729 142.389 99.2421C164.995 87.0073 183.156 95.912 183.156 95.912C183.156 95.912 175 99.2421 172.961 101.281C167.592 99.0513 165.919 101.09 165.919 101.09L167.958 102.939C167.958 102.939 160.55 105.535 159.245 106.826C155.724 104.054 153.875 104.23 153.875 104.23L154.242 107.751C154.242 107.751 148.873 110.905 146.834 113.501C146.834 113.501 184.447 105.711 204.281 134.259C186.12 132.411 182.599 130.738 178.154 127.775C179.826 131.853 175.748 130.005 172.037 129.066C168.325 128.127 161.474 125.355 154.242 127.394C162.765 128.142 167.401 130.357 167.401 130.357C167.401 130.357 163.513 130.357 162.208 132.396C183.333 136.841 200.936 162.601 201.685 172.24C184.829 166.122 179.636 158.714 179.636 158.714C179.636 158.714 180.002 162.235 180.56 163.526C170.188 159.257 161.474 146.67 161.474 146.67L160.726 152.597C160.726 152.597 143.87 137.399 139.968 137.032C160.726 163.159 165.362 180.572 164.423 200.215C164.423 200.215 142.007 189.844 141.626 165.755C136.257 169.467 135.142 173.355 135.142 173.355C135.142 173.355 126.619 154.46 126.428 144.998C118.756 180.205 119.342 258.499 119.533 273.726C124.33 272.171 130.154 271.13 137.181 271.027C126.34 283.702 124.946 289.526 124.946 289.526C124.946 289.526 133.983 287.12 147.186 286.724C144.457 290.377 141.817 294.484 139.66 298.856C138.883 298.577 138.061 298.43 137.21 298.43C135.171 298.43 131.342 299.311 128.716 305.134C127.132 308.641 125.973 313.907 125.166 318.836C115.792 319.086 103.66 319.804 93.9193 321.814C96.5306 326.655 99.3472 331.379 102.369 335.956H141.523C140.584 327.433 138.692 311.413 137.504 310.958C134.76 309.917 132.883 331.995 132.883 331.995H127.983C127.983 331.995 129.391 314.318 132.721 306.954C136.051 299.575 141.582 302.787 143.152 311.222C144.164 316.665 145.543 328.357 146.394 335.971H150.941C150.384 330.91 149.489 323.193 148.594 317.677C148.594 317.633 148.579 317.575 148.565 317.516C148.183 314.729 147.802 312.249 147.465 310.43C146.951 307.672 146.056 305.281 144.868 303.389C147.919 301.467 151.381 304.856 152.555 311.222C153.567 316.665 154.961 328.357 155.812 335.971H420.325C421.704 333.873 423.039 331.76 424.345 329.604C419.034 329.853 413.841 330.117 409.557 330.411C393.157 331.511 372.589 332.905 361.469 331.247C350.35 329.575 339.787 329.017 339.787 329.017L338.394 332.01H332.57L334.785 325.54C334.785 325.54 318.809 329.017 296.423 329.017C274.037 329.017 222.633 324.147 222.633 324.147L221.518 319.423L216.795 319.702L219.714 328.606L213.465 328.181L209.841 319.848H201.787L198.311 328.738L192.061 327.623L191.914 324.851L186.222 324.147L184.697 319.423L173.43 319.012L168.853 326.787L162.589 326.934L158.042 317.883C157.631 314.949 157.235 312.337 156.883 310.43C155.694 304.049 152.452 299.648 148.374 298.665L147.993 297.888L152.027 286.768L160.374 286.357V255.917H137.166L248.716 153.711L348.413 241.555L349.895 238.592L358.227 237.844L352.477 236.553L250.198 146.67L378.061 188.919L401.401 206.523L449.9 206.156C437.43 113.223 357.626 41.3399 261.347 41.3399C216.78 41.3399 175.748 56.7286 143.298 82.489C144.648 77.5452 147.465 66.8949 150.193 59.3985C182.218 38.6846 220.374 26.6699 261.347 26.6699C365.856 26.6699 452.115 104.934 464.687 206.039C464.922 207.902 465.112 209.78 465.289 211.658C465.919 218.215 466.257 224.846 466.257 231.579C466.257 248.655 464.144 265.247 460.213 281.12C458.907 286.401 457.381 291.594 455.68 296.699C454.829 299.237 453.934 301.76 452.98 304.254C452.408 305.78 451.807 307.291 451.191 308.802C450.296 311.002 449.372 313.174 448.403 315.33C447.611 317.09 446.804 318.822 445.968 320.553C444.604 323.369 443.21 326.156 441.729 328.9H441.787Z" fill="white"/>
<path d="M363.964 279.081H365.622C365.666 277.482 366.972 276.205 368.585 276.205C368.776 276.205 368.967 276.205 369.143 276.264V267.873H360.253V276.308C360.488 276.235 360.737 276.205 361.001 276.205C362.615 276.205 363.92 277.482 363.964 279.081Z" fill="white"/>
<path d="M280.566 301.966H247.397V305.575H280.566V301.966Z" fill="white"/>
<path d="M271.894 261.286C267.317 261.286 263.605 264.998 263.605 269.575V293.252H280.197V269.575C280.197 264.998 276.486 261.286 271.909 261.286H271.894Z" fill="white"/>
<path d="M247.397 313.174L280.845 312.895V309.286L247.397 309.565V313.174Z" fill="white"/>
<path d="M318.544 261.286H303.346V313.731H318.544V261.286Z" fill="white"/>
<path d="M292.975 313.731H297.508V261.286H292.975V313.731Z" fill="white"/>
<path d="M234.325 214.313L233.577 218.582C233.577 218.582 188.364 236.186 169.278 244.709C169.278 244.709 193.557 241.379 235.806 240.073C278.056 238.768 301.777 244.709 301.777 244.709L235.806 218.391L234.325 214.313Z" fill="white"/>
</g>
</g>
</g>
<defs>
<clipPath id="clip0_32_310">
<rect width="474" height="439.174" fill="white" transform="translate(7 12)"/>
</clipPath>
</defs>
</svg>
